<?xml version="1.0" encoding="UTF-8"?>
<svg xmlns="http://www.w3.org/2000/svg" xmlns:xlink="http://www.w3.org/1999/xlink" width="600" height="151.521759" viewBox="0 0 600 151.521759">
<defs>
<clipPath id="clip-0">
<path clip-rule="nonzero" d="M 460 129 L 475 129 L 475 151.523438 L 460 151.523438 Z M 460 129 "/>
</clipPath>
<clipPath id="clip-1">
<path clip-rule="nonzero" d="M 476 129 L 491 129 L 491 151.523438 L 476 151.523438 Z M 476 129 "/>
</clipPath>
</defs>
<path fill-rule="nonzero" fill="rgb(0%, 0%, 0%)" fill-opacity="1" d="M 140.765625 0 L 136.246094 20.75 L 149.675781 20.75 L 154.679688 0 L 174.476562 0 L 161.671875 57.484375 L 141.707031 57.476562 L 146.328125 35.398438 L 133.265625 35.398438 L 127.929688 57.476562 L 107.363281 57.464844 L 116.863281 14.914062 L 99.066406 14.902344 L 89.585938 57.484375 L 68.433594 57.476562 L 77.90625 14.902344 L 31.539062 14.902344 L 29.996094 21.78125 L 58.570312 21.78125 L 55.5625 35.324219 L 26.746094 35.324219 L 25.089844 42.535156 L 54.996094 42.535156 L 51.65625 57.476562 L 0.558594 57.476562 L 13.363281 0 Z M 140.765625 0 "/>
<path fill-rule="nonzero" fill="rgb(0%, 0%, 0%)" fill-opacity="1" d="M 0.917969 105.515625 L 0.917969 86.070312 L 11.171875 86.070312 L 11.171875 88.695312 L 4.0625 88.695312 L 4.0625 94.222656 L 10.824219 94.222656 L 10.824219 96.789062 L 4.0625 96.789062 L 4.0625 102.839844 L 11.171875 102.839844 L 11.171875 105.515625 Z M 0.917969 105.515625 "/>
<path fill-rule="nonzero" fill="rgb(0%, 0%, 0%)" fill-opacity="1" d="M 16.183594 91.203125 L 19.265625 91.203125 L 19.265625 105.515625 L 16.183594 105.515625 Z M 17.738281 89.070312 C 16.644531 89.070312 15.753906 88.207031 15.753906 87.140625 C 15.753906 86.070312 16.644531 85.207031 17.738281 85.207031 C 18.808594 85.207031 19.703125 86.046875 19.703125 87.140625 C 19.703125 88.203125 18.808594 89.070312 17.738281 89.070312 "/>
<path fill-rule="nonzero" fill="rgb(0%, 0%, 0%)" fill-opacity="1" d="M 36.230469 105.515625 L 36.230469 84.488281 L 33.179688 84.488281 L 33.179688 91.085938 C 32.398438 91.023438 31.710938 90.96875 31.023438 90.96875 C 26.378906 90.96875 23.53125 94.136719 23.53125 99.066406 C 23.53125 103.207031 25.285156 105.804688 28.796875 105.804688 C 31.023438 105.804688 32.683594 104.597656 33.464844 102.839844 L 33.519531 102.839844 C 33.378906 103.640625 33.320312 104.769531 33.320312 105.515625 Z M 33.179688 98.117188 C 33.179688 100.5625 31.910156 103.273438 29.636719 103.273438 C 27.671875 103.273438 26.785156 101.65625 26.785156 98.777344 C 26.785156 94.921875 28.457031 93.417969 30.898438 93.417969 C 31.652344 93.417969 32.394531 93.503906 33.179688 93.679688 Z M 33.179688 98.117188 "/>
<path fill-rule="nonzero" fill="rgb(0%, 0%, 0%)" fill-opacity="1" d="M 51.234375 107.792969 C 51.234375 109.347656 49.738281 110.496094 47.0625 110.496094 C 44.984375 110.496094 43.546875 109.632812 43.546875 108.105469 C 43.546875 107.132812 44.152344 106.269531 45.125 105.71875 C 45.363281 105.746094 45.648438 105.746094 45.910156 105.746094 L 48.589844 105.746094 C 50.402344 105.75 51.234375 106.554688 51.234375 107.792969 M 54.289062 107.390625 C 54.289062 104.710938 52.53125 103.238281 49.421875 103.238281 L 46.972656 103.238281 C 45.246094 103.238281 44.609375 102.953125 44.609375 102.234375 C 44.609375 101.832031 44.871094 101.402344 45.449219 101.171875 C 45.878906 101.257812 46.542969 101.3125 47.089844 101.3125 C 51.121094 101.3125 53.28125 99.121094 53.28125 96.015625 C 53.28125 94.976562 52.90625 94.113281 52.304688 93.621094 L 54.488281 93.621094 L 54.488281 91.203125 L 49.652344 91.203125 C 48.875 91.027344 48.15625 90.914062 47.292969 90.914062 C 43.199219 90.914062 40.894531 93.449219 40.894531 96.472656 C 40.894531 98.257812 41.617188 99.730469 43.027344 100.507812 C 42.019531 100.941406 41.386719 101.914062 41.386719 102.953125 C 41.386719 103.90625 41.933594 104.652344 42.796875 105.085938 C 41.5625 105.71875 40.492188 107.070312 40.492188 108.683594 C 40.492188 111.453125 42.828125 112.898438 46.570312 112.898438 C 51.179688 112.894531 54.289062 110.441406 54.289062 107.390625 M 50.316406 96.214844 C 50.316406 98.082031 49.046875 99.152344 47.117188 99.152344 C 45.039062 99.152344 43.890625 98.054688 43.890625 96.179688 C 43.890625 94.421875 45.101562 93.183594 47.148438 93.183594 C 49.132812 93.183594 50.316406 94.3125 50.316406 96.214844 "/>
<path fill-rule="nonzero" fill="rgb(0%, 0%, 0%)" fill-opacity="1" d="M 69.691406 97.109375 C 69.691406 93.707031 67.941406 90.914062 63.847656 90.914062 C 59.667969 90.914062 57.308594 94.136719 57.308594 98.460938 C 57.308594 103.5 59.757812 105.804688 64.226562 105.804688 C 65.976562 105.804688 67.734375 105.488281 69.179688 104.882812 L 68.886719 102.433594 C 67.710938 103.007812 66.183594 103.351562 64.710938 103.351562 C 61.859375 103.351562 60.390625 101.859375 60.476562 98.550781 L 69.613281 98.550781 C 69.667969 97.996094 69.691406 97.511719 69.691406 97.109375 M 66.617188 96.386719 L 60.53125 96.386719 C 60.796875 94.453125 62.003906 93.183594 63.730469 93.183594 C 65.546875 93.183594 66.671875 94.421875 66.617188 96.386719 "/>
<path fill-rule="nonzero" fill="rgb(0%, 0%, 0%)" fill-opacity="1" d="M 83.058594 105.515625 L 83.058594 96.300781 C 83.058594 94.511719 82.566406 93.476562 80.933594 93.476562 C 78.769531 93.476562 77.183594 95.746094 77.183594 98.605469 L 77.183594 105.515625 L 74.105469 105.515625 L 74.105469 91.199219 L 77.039062 91.199219 C 77.039062 91.953125 76.980469 93.183594 76.839844 93.992188 L 76.871094 94.023438 C 77.703125 92.179688 79.429688 90.914062 81.851562 90.914062 C 85.101562 90.914062 86.109375 92.957031 86.109375 95.492188 L 86.109375 105.515625 Z M 83.058594 105.515625 "/>
<path fill-rule="nonzero" fill="rgb(0%, 0%, 0%)" fill-opacity="1" d="M 103.996094 98.082031 C 103.996094 93.042969 101.292969 90.914062 97.460938 90.914062 C 93.113281 90.914062 90.324219 94.222656 90.324219 98.550781 C 90.324219 103.589844 92.914062 105.804688 96.882812 105.804688 C 101.121094 105.804688 103.996094 102.492188 103.996094 98.082031 M 96.136719 86.734375 C 96.136719 85.785156 95.355469 85.007812 94.378906 85.007812 C 93.398438 85.007812 92.652344 85.785156 92.652344 86.734375 C 92.652344 87.71875 93.398438 88.496094 94.378906 88.496094 C 95.355469 88.496094 96.136719 87.71875 96.136719 86.734375 M 101.78125 86.734375 C 101.78125 85.785156 101 85.007812 100.054688 85.007812 C 99.070312 85.007812 98.296875 85.785156 98.296875 86.734375 C 98.296875 87.71875 99.070312 88.496094 100.054688 88.496094 C 101 88.496094 101.78125 87.71875 101.78125 86.734375 M 100.835938 98.285156 C 100.835938 101.601562 99.164062 103.152344 97.171875 103.152344 C 94.78125 103.152344 93.515625 101.457031 93.515625 98.230469 C 93.515625 94.945312 95.332031 93.503906 97.203125 93.503906 C 99.648438 93.503906 100.835938 95.234375 100.835938 98.285156 "/>
<path fill-rule="nonzero" fill="rgb(0%, 0%, 0%)" fill-opacity="1" d="M 110.621094 105.804688 C 109.558594 105.804688 108.488281 105.6875 107.601562 105.515625 L 107.691406 102.898438 C 108.578125 103.152344 109.703125 103.351562 110.800781 103.351562 C 112.472656 103.351562 113.621094 102.636719 113.621094 101.457031 C 113.621094 98.578125 107.339844 100.304688 107.339844 95.351562 C 107.339844 92.871094 109.355469 90.914062 113.242188 90.914062 C 114.078125 90.914062 115.058594 91.023438 115.921875 91.171875 L 115.839844 93.679688 C 114.976562 93.417969 113.964844 93.273438 113.046875 93.273438 C 111.347656 93.273438 110.511719 93.964844 110.511719 95.0625 C 110.511719 97.828125 116.839844 96.417969 116.839844 101.171875 C 116.839844 103.847656 114.457031 105.804688 110.621094 105.804688 "/>
<path fill-rule="nonzero" fill="rgb(0%, 0%, 0%)" fill-opacity="1" d="M 123.667969 105.804688 C 122.605469 105.804688 121.539062 105.6875 120.648438 105.515625 L 120.730469 102.898438 C 121.628906 103.152344 122.75 103.351562 123.84375 103.351562 C 125.515625 103.351562 126.664062 102.636719 126.664062 101.457031 C 126.664062 98.578125 120.386719 100.304688 120.386719 95.351562 C 120.386719 92.871094 122.402344 90.914062 126.289062 90.914062 C 127.125 90.914062 128.109375 91.023438 128.96875 91.171875 L 128.890625 93.679688 C 128.019531 93.417969 127.011719 93.273438 126.09375 93.273438 C 124.390625 93.273438 123.558594 93.964844 123.558594 95.0625 C 123.558594 97.828125 129.890625 96.417969 129.890625 101.171875 C 129.890625 103.847656 127.503906 105.804688 123.667969 105.804688 "/>
<path fill-rule="nonzero" fill="rgb(0%, 0%, 0%)" fill-opacity="1" d="M 134.355469 91.203125 L 137.4375 91.203125 L 137.4375 105.515625 L 134.355469 105.515625 Z M 135.910156 89.070312 C 134.816406 89.070312 133.921875 88.207031 133.921875 87.140625 C 133.921875 86.070312 134.816406 85.207031 135.910156 85.207031 C 136.976562 85.207031 137.867188 86.046875 137.867188 87.140625 C 137.867188 88.203125 136.976562 89.070312 135.910156 89.070312 "/>
<path fill-rule="nonzero" fill="rgb(0%, 0%, 0%)" fill-opacity="1" d="M 145.21875 105.804688 C 144.152344 105.804688 143.085938 105.6875 142.195312 105.515625 L 142.277344 102.898438 C 143.167969 103.152344 144.292969 103.351562 145.386719 103.351562 C 147.058594 103.351562 148.214844 102.636719 148.214844 101.457031 C 148.214844 98.578125 141.933594 100.304688 141.933594 95.351562 C 141.933594 92.871094 143.949219 90.914062 147.835938 90.914062 C 148.671875 90.914062 149.65625 91.023438 150.519531 91.171875 L 150.429688 93.679688 C 149.566406 93.417969 148.554688 93.273438 147.636719 93.273438 C 145.933594 93.273438 145.097656 93.964844 145.097656 95.0625 C 145.097656 97.828125 151.4375 96.417969 151.4375 101.171875 C 151.4375 103.847656 149.046875 105.804688 145.21875 105.804688 "/>
<path fill-rule="nonzero" fill="rgb(0%, 0%, 0%)" fill-opacity="1" d="M 161.113281 105.75 C 157.429688 105.75 154.75 103.9375 154.75 98.835938 C 154.75 94.289062 157.082031 90.96875 162.007812 90.96875 C 163.074219 90.96875 164.167969 91.117188 165.121094 91.402344 L 164.800781 94.082031 C 163.9375 93.761719 162.960938 93.535156 161.921875 93.535156 C 159.304688 93.535156 157.972656 95.464844 157.972656 98.484375 C 157.972656 101.109375 158.925781 103.097656 161.777344 103.097656 C 162.871094 103.097656 164.050781 102.839844 164.886719 102.410156 L 165.148438 105.03125 C 164.195312 105.402344 162.695312 105.75 161.113281 105.75 "/>
<path fill-rule="nonzero" fill="rgb(0%, 0%, 0%)" fill-opacity="1" d="M 178.195312 105.515625 L 178.195312 96.300781 C 178.195312 94.511719 177.703125 93.476562 176.0625 93.476562 C 173.902344 93.476562 172.320312 95.746094 172.320312 98.628906 L 172.320312 105.515625 L 169.238281 105.515625 L 169.238281 84.488281 L 172.320312 84.488281 L 172.320312 90.96875 C 172.320312 91.863281 172.261719 93.074219 172.058594 93.851562 L 172.117188 93.882812 C 172.949219 92.09375 174.652344 90.914062 176.984375 90.914062 C 180.238281 90.914062 181.246094 92.957031 181.246094 95.492188 L 181.246094 105.515625 Z M 178.195312 105.515625 "/>
<path fill-rule="nonzero" fill="rgb(0%, 0%, 0%)" fill-opacity="1" d="M 197.898438 97.109375 C 197.898438 93.707031 196.140625 90.914062 192.050781 90.914062 C 187.875 90.914062 185.507812 94.136719 185.507812 98.460938 C 185.507812 103.5 187.960938 105.804688 192.421875 105.804688 C 194.179688 105.804688 195.941406 105.488281 197.375 104.882812 L 197.089844 102.433594 C 195.90625 103.007812 194.378906 103.351562 192.914062 103.351562 C 190.0625 103.351562 188.589844 101.859375 188.683594 98.550781 L 197.808594 98.550781 C 197.867188 97.996094 197.898438 97.511719 197.898438 97.109375 M 194.8125 96.386719 L 188.738281 96.386719 C 188.992188 94.453125 190.207031 93.183594 191.933594 93.183594 C 193.746094 93.183594 194.875 94.421875 194.8125 96.386719 "/>
<path fill-rule="nonzero" fill="rgb(0%, 0%, 0%)" fill-opacity="1" d="M 215.171875 88.726562 L 215.171875 105.515625 L 212.035156 105.515625 L 212.035156 88.726562 L 206.707031 88.726562 L 206.707031 86.070312 L 220.53125 86.070312 L 220.53125 88.726562 Z M 215.171875 88.726562 "/>
<path fill-rule="nonzero" fill="rgb(0%, 0%, 0%)" fill-opacity="1" d="M 232.9375 97.109375 C 232.9375 93.707031 231.183594 90.914062 227.09375 90.914062 C 222.917969 90.914062 220.558594 94.136719 220.558594 98.460938 C 220.558594 103.5 223.003906 105.804688 227.46875 105.804688 C 229.226562 105.804688 230.976562 105.488281 232.421875 104.882812 L 232.136719 102.433594 C 230.953125 103.007812 229.425781 103.351562 227.957031 103.351562 C 225.105469 103.351562 223.632812 101.859375 223.722656 98.550781 L 232.855469 98.550781 C 232.910156 97.996094 232.9375 97.511719 232.9375 97.109375 M 229.859375 96.386719 L 223.78125 96.386719 C 224.042969 94.453125 225.25 93.183594 226.984375 93.183594 C 228.792969 93.183594 229.914062 94.421875 229.859375 96.386719 "/>
<path fill-rule="nonzero" fill="rgb(0%, 0%, 0%)" fill-opacity="1" d="M 242.558594 105.75 C 238.875 105.75 236.199219 103.9375 236.199219 98.835938 C 236.199219 94.289062 238.53125 90.96875 243.453125 90.96875 C 244.515625 90.96875 245.617188 91.117188 246.5625 91.402344 L 246.242188 94.082031 C 245.378906 93.761719 244.40625 93.535156 243.367188 93.535156 C 240.746094 93.535156 239.421875 95.464844 239.421875 98.484375 C 239.421875 101.109375 240.371094 103.097656 243.21875 103.097656 C 244.316406 103.097656 245.5 102.839844 246.332031 102.410156 L 246.589844 105.03125 C 245.644531 105.402344 244.144531 105.75 242.558594 105.75 "/>
<path fill-rule="nonzero" fill="rgb(0%, 0%, 0%)" fill-opacity="1" d="M 259.640625 105.515625 L 259.640625 96.300781 C 259.640625 94.511719 259.152344 93.476562 257.507812 93.476562 C 255.347656 93.476562 253.765625 95.746094 253.765625 98.628906 L 253.765625 105.515625 L 250.679688 105.515625 L 250.679688 84.488281 L 253.765625 84.488281 L 253.765625 90.96875 C 253.765625 91.863281 253.707031 93.074219 253.5 93.851562 L 253.566406 93.882812 C 254.398438 92.09375 256.101562 90.914062 258.429688 90.914062 C 261.6875 90.914062 262.691406 92.957031 262.691406 95.492188 L 262.691406 105.515625 Z M 259.640625 105.515625 "/>
<path fill-rule="nonzero" fill="rgb(0%, 0%, 0%)" fill-opacity="1" d="M 277.0625 105.515625 L 277.0625 96.300781 C 277.0625 94.511719 276.574219 93.476562 274.933594 93.476562 C 272.769531 93.476562 271.191406 95.746094 271.191406 98.605469 L 271.191406 105.515625 L 268.113281 105.515625 L 268.113281 91.199219 L 271.042969 91.199219 C 271.042969 91.953125 270.988281 93.183594 270.84375 93.992188 L 270.867188 94.023438 C 271.707031 92.179688 273.4375 90.914062 275.855469 90.914062 C 279.109375 90.914062 280.117188 92.957031 280.117188 95.492188 L 280.117188 105.515625 Z M 277.0625 105.515625 "/>
<path fill-rule="nonzero" fill="rgb(0%, 0%, 0%)" fill-opacity="1" d="M 285.535156 91.203125 L 288.617188 91.203125 L 288.617188 105.515625 L 285.535156 105.515625 Z M 287.085938 89.070312 C 285.992188 89.070312 285.105469 88.207031 285.105469 87.140625 C 285.105469 86.070312 285.992188 85.207031 287.085938 85.207031 C 288.15625 85.207031 289.042969 86.046875 289.042969 87.140625 C 289.042969 88.203125 288.15625 89.070312 287.085938 89.070312 "/>
<path fill-rule="nonzero" fill="rgb(0%, 0%, 0%)" fill-opacity="1" d="M 296.394531 105.804688 C 295.328125 105.804688 294.257812 105.6875 293.371094 105.515625 L 293.457031 102.898438 C 294.347656 103.152344 295.46875 103.351562 296.570312 103.351562 C 298.234375 103.351562 299.390625 102.636719 299.390625 101.457031 C 299.390625 98.578125 293.105469 100.304688 293.105469 95.351562 C 293.105469 92.871094 295.128906 90.914062 299.015625 90.914062 C 299.851562 90.914062 300.824219 91.023438 301.6875 91.171875 L 301.601562 93.679688 C 300.742188 93.417969 299.730469 93.273438 298.8125 93.273438 C 297.109375 93.273438 296.277344 93.964844 296.277344 95.0625 C 296.277344 97.828125 302.617188 96.417969 302.617188 101.171875 C 302.617188 103.847656 300.226562 105.804688 296.394531 105.804688 "/>
<path fill-rule="nonzero" fill="rgb(0%, 0%, 0%)" fill-opacity="1" d="M 312.296875 105.75 C 308.605469 105.75 305.925781 103.9375 305.925781 98.835938 C 305.925781 94.289062 308.257812 90.96875 313.183594 90.96875 C 314.25 90.96875 315.34375 91.117188 316.296875 91.402344 L 315.980469 94.082031 C 315.117188 93.761719 314.136719 93.535156 313.097656 93.535156 C 310.472656 93.535156 309.152344 95.464844 309.152344 98.484375 C 309.152344 101.109375 310.105469 103.097656 312.953125 103.097656 C 314.046875 103.097656 315.230469 102.839844 316.070312 102.410156 L 316.324219 105.03125 C 315.371094 105.402344 313.875 105.75 312.296875 105.75 "/>
<path fill-rule="nonzero" fill="rgb(0%, 0%, 0%)" fill-opacity="1" d="M 329.375 105.515625 L 329.375 96.300781 C 329.375 94.511719 328.878906 93.476562 327.242188 93.476562 C 325.078125 93.476562 323.492188 95.746094 323.492188 98.628906 L 323.492188 105.515625 L 320.417969 105.515625 L 320.417969 84.488281 L 323.492188 84.488281 L 323.492188 90.96875 C 323.492188 91.863281 323.4375 93.074219 323.238281 93.851562 L 323.292969 93.882812 C 324.125 92.09375 325.828125 90.914062 328.160156 90.914062 C 331.414062 90.914062 332.421875 92.957031 332.421875 95.492188 L 332.421875 105.515625 Z M 329.375 105.515625 "/>
<path fill-rule="nonzero" fill="rgb(0%, 0%, 0%)" fill-opacity="1" d="M 349.074219 97.109375 C 349.074219 93.707031 347.316406 90.914062 343.226562 90.914062 C 339.050781 90.914062 336.691406 94.136719 336.691406 98.460938 C 336.691406 103.5 339.136719 105.804688 343.601562 105.804688 C 345.355469 105.804688 347.117188 105.488281 348.550781 104.882812 L 348.265625 102.433594 C 347.082031 103.007812 345.5625 103.351562 344.089844 103.351562 C 341.238281 103.351562 339.769531 101.859375 339.859375 98.550781 L 348.984375 98.550781 C 349.042969 97.996094 349.074219 97.511719 349.074219 97.109375 M 345.992188 96.386719 L 339.914062 96.386719 C 340.175781 94.453125 341.386719 93.183594 343.113281 93.183594 C 344.921875 93.183594 346.050781 94.421875 345.992188 96.386719 "/>
<path fill-rule="nonzero" fill="rgb(0%, 0%, 0%)" fill-opacity="1" d="M 373.007812 105.515625 L 373.007812 96.789062 L 363.820312 96.789062 L 363.820312 105.515625 L 360.679688 105.515625 L 360.679688 86.070312 L 363.820312 86.070312 L 363.820312 94.113281 L 373.007812 94.113281 L 373.007812 86.070312 L 376.121094 86.070312 L 376.121094 105.515625 Z M 373.007812 105.515625 "/>
<path fill-rule="nonzero" fill="rgb(0%, 0%, 0%)" fill-opacity="1" d="M 394.035156 98.082031 C 394.035156 93.042969 391.328125 90.914062 387.492188 90.914062 C 383.148438 90.914062 380.355469 94.222656 380.355469 98.550781 C 380.355469 103.589844 382.945312 105.804688 386.914062 105.804688 C 391.152344 105.804688 394.035156 102.492188 394.035156 98.082031 M 390.867188 98.285156 C 390.867188 101.601562 389.195312 103.152344 387.207031 103.152344 C 384.820312 103.152344 383.550781 101.457031 383.550781 98.230469 C 383.550781 94.945312 385.367188 93.503906 387.238281 93.503906 C 389.683594 93.503906 390.867188 95.234375 390.867188 98.285156 "/>
<path fill-rule="nonzero" fill="rgb(0%, 0%, 0%)" fill-opacity="1" d="M 403.511719 105.75 C 399.828125 105.75 397.148438 103.9375 397.148438 98.835938 C 397.148438 94.289062 399.476562 90.96875 404.40625 90.96875 C 405.46875 90.96875 406.566406 91.117188 407.511719 91.402344 L 407.195312 94.082031 C 406.335938 93.761719 405.355469 93.535156 404.320312 93.535156 C 401.695312 93.535156 400.371094 95.464844 400.371094 98.484375 C 400.371094 101.109375 401.324219 103.097656 404.175781 103.097656 C 405.269531 103.097656 406.453125 102.839844 407.28125 102.410156 L 407.542969 105.03125 C 406.59375 105.402344 405.09375 105.75 403.511719 105.75 "/>
<path fill-rule="nonzero" fill="rgb(0%, 0%, 0%)" fill-opacity="1" d="M 420.59375 105.515625 L 420.59375 96.300781 C 420.59375 94.511719 420.101562 93.476562 418.460938 93.476562 C 416.300781 93.476562 414.714844 95.746094 414.714844 98.628906 L 414.714844 105.515625 L 411.632812 105.515625 L 411.632812 84.488281 L 414.714844 84.488281 L 414.714844 90.96875 C 414.714844 91.863281 414.660156 93.074219 414.453125 93.851562 L 414.515625 93.882812 C 415.347656 92.09375 417.050781 90.914062 419.382812 90.914062 C 422.636719 90.914062 423.644531 92.957031 423.644531 95.492188 L 423.644531 105.515625 Z M 420.59375 105.515625 "/>
<path fill-rule="nonzero" fill="rgb(0%, 0%, 0%)" fill-opacity="1" d="M 431.421875 105.804688 C 430.351562 105.804688 429.289062 105.6875 428.394531 105.515625 L 428.480469 102.898438 C 429.378906 103.152344 430.496094 103.351562 431.597656 103.351562 C 433.261719 103.351562 434.417969 102.636719 434.417969 101.457031 C 434.417969 98.578125 428.136719 100.304688 428.136719 95.351562 C 428.136719 92.871094 430.152344 90.914062 434.042969 90.914062 C 434.875 90.914062 435.859375 91.023438 436.722656 91.171875 L 436.636719 93.679688 C 435.769531 93.417969 434.765625 93.273438 433.839844 93.273438 C 432.136719 93.273438 431.308594 93.964844 431.308594 95.0625 C 431.308594 97.828125 437.640625 96.417969 437.640625 101.171875 C 437.640625 103.847656 435.25 105.804688 431.421875 105.804688 "/>
<path fill-rule="nonzero" fill="rgb(0%, 0%, 0%)" fill-opacity="1" d="M 447.316406 105.75 C 443.632812 105.75 440.957031 103.9375 440.957031 98.835938 C 440.957031 94.289062 443.289062 90.96875 448.21875 90.96875 C 449.277344 90.96875 450.375 91.117188 451.324219 91.402344 L 451.007812 94.082031 C 450.144531 93.761719 449.164062 93.535156 448.125 93.535156 C 445.507812 93.535156 444.179688 95.464844 444.179688 98.484375 C 444.179688 101.109375 445.128906 103.097656 447.980469 103.097656 C 449.082031 103.097656 450.257812 102.839844 451.09375 102.410156 L 451.355469 105.03125 C 450.40625 105.402344 448.90625 105.75 447.316406 105.75 "/>
<path fill-rule="nonzero" fill="rgb(0%, 0%, 0%)" fill-opacity="1" d="M 464.398438 105.515625 L 464.398438 96.300781 C 464.398438 94.511719 463.914062 93.476562 462.265625 93.476562 C 460.109375 93.476562 458.527344 95.746094 458.527344 98.628906 L 458.527344 105.515625 L 455.441406 105.515625 L 455.441406 84.488281 L 458.527344 84.488281 L 458.527344 90.96875 C 458.527344 91.863281 458.46875 93.074219 458.261719 93.851562 L 458.328125 93.882812 C 459.160156 92.09375 460.863281 90.914062 463.191406 90.914062 C 466.449219 90.914062 467.453125 92.957031 467.453125 95.492188 L 467.453125 105.515625 Z M 464.398438 105.515625 "/>
<path fill-rule="nonzero" fill="rgb(0%, 0%, 0%)" fill-opacity="1" d="M 481.941406 105.515625 C 481.941406 104.769531 481.996094 103.527344 482.144531 102.722656 L 482.113281 102.695312 C 481.28125 104.53125 479.554688 105.804688 477.136719 105.804688 C 473.878906 105.804688 472.867188 103.761719 472.867188 101.226562 L 472.867188 91.199219 L 475.921875 91.199219 L 475.921875 100.417969 C 475.921875 102.203125 476.410156 103.238281 478.054688 103.238281 C 480.210938 103.238281 481.796875 100.964844 481.796875 98.117188 L 481.796875 91.199219 L 484.878906 91.199219 L 484.878906 105.515625 Z M 481.941406 105.515625 "/>
<path fill-rule="nonzero" fill="rgb(0%, 0%, 0%)" fill-opacity="1" d="M 490.296875 84.488281 L 493.378906 84.488281 L 493.378906 105.515625 L 490.296875 105.515625 Z M 490.296875 84.488281 "/>
<path fill-rule="nonzero" fill="rgb(0%, 0%, 0%)" fill-opacity="1" d="M 510.023438 97.109375 C 510.023438 93.707031 508.265625 90.914062 504.175781 90.914062 C 500 90.914062 497.640625 94.136719 497.640625 98.460938 C 497.640625 103.5 500.089844 105.804688 504.550781 105.804688 C 506.308594 105.804688 508.066406 105.488281 509.503906 104.882812 L 509.214844 102.433594 C 508.035156 103.007812 506.515625 103.351562 505.042969 103.351562 C 502.191406 103.351562 500.722656 101.859375 500.804688 98.550781 L 509.9375 98.550781 C 509.992188 97.996094 510.023438 97.511719 510.023438 97.109375 M 506.945312 96.386719 L 500.863281 96.386719 C 501.128906 94.453125 502.332031 93.183594 504.058594 93.183594 C 505.875 93.183594 507 94.421875 506.945312 96.386719 "/>
<path fill-rule="nonzero" fill="rgb(0%, 0%, 0%)" fill-opacity="1" d="M 520.679688 105.515625 L 520.679688 103.128906 L 528.34375 90.941406 C 528.808594 90.195312 529.265625 89.527344 529.78125 88.835938 C 528.949219 88.867188 527.824219 88.867188 525.835938 88.867188 L 520.964844 88.867188 L 520.964844 86.070312 L 533.5 86.070312 L 533.5 88.550781 L 525.433594 101.140625 C 525.117188 101.6875 524.800781 102.144531 524.425781 102.695312 C 524.945312 102.632812 526.496094 102.632812 528.976562 102.632812 L 533.609375 102.632812 L 533.609375 105.515625 Z M 520.679688 105.515625 "/>
<path fill-rule="nonzero" fill="rgb(0%, 0%, 0%)" fill-opacity="1" d="M 546.65625 105.515625 C 546.65625 104.769531 546.714844 103.527344 546.855469 102.722656 L 546.832031 102.695312 C 545.992188 104.53125 544.265625 105.804688 541.847656 105.804688 C 538.59375 105.804688 537.585938 103.761719 537.585938 101.226562 L 537.585938 91.199219 L 540.636719 91.199219 L 540.636719 100.417969 C 540.636719 102.203125 541.125 103.238281 542.769531 103.238281 C 544.929688 103.238281 546.515625 100.964844 546.515625 98.117188 L 546.515625 91.199219 L 549.597656 91.199219 L 549.597656 105.515625 Z M 540.609375 88.496094 C 539.628906 88.496094 538.882812 87.71875 538.882812 86.734375 C 538.882812 85.785156 539.628906 85.007812 540.609375 85.007812 C 541.59375 85.007812 542.363281 85.785156 542.363281 86.734375 C 542.363281 87.71875 541.59375 88.496094 540.609375 88.496094 M 546.28125 88.496094 C 545.304688 88.496094 544.527344 87.71875 544.527344 86.734375 C 544.527344 85.785156 545.304688 85.007812 546.28125 85.007812 C 547.234375 85.007812 548.015625 85.785156 548.015625 86.734375 C 548.015625 87.71875 547.234375 88.496094 546.28125 88.496094 "/>
<path fill-rule="nonzero" fill="rgb(0%, 0%, 0%)" fill-opacity="1" d="M 562.328125 93.9375 C 559.476562 93.421875 558.097656 95.40625 558.097656 99.699219 L 558.097656 105.515625 L 555.007812 105.515625 L 555.007812 91.203125 L 557.949219 91.203125 C 557.949219 92.011719 557.859375 93.273438 557.664062 94.371094 L 557.71875 94.371094 C 558.351562 92.441406 559.789062 90.65625 562.472656 90.917969 Z M 562.328125 93.9375 "/>
<path fill-rule="nonzero" fill="rgb(0%, 0%, 0%)" fill-opacity="1" d="M 569.242188 91.203125 L 566.152344 91.203125 L 566.152344 105.515625 L 569.242188 105.515625 Z M 569.675781 87.140625 C 569.675781 86.046875 568.785156 85.207031 567.707031 85.207031 C 566.613281 85.207031 565.726562 86.070312 565.726562 87.140625 C 565.726562 88.207031 566.613281 89.070312 567.707031 89.070312 C 568.78125 89.070312 569.675781 88.203125 569.675781 87.140625 "/>
<path fill-rule="nonzero" fill="rgb(0%, 0%, 0%)" fill-opacity="1" d="M 579.867188 105.75 C 576.183594 105.75 573.507812 103.9375 573.507812 98.835938 C 573.507812 94.289062 575.835938 90.96875 580.761719 90.96875 C 581.824219 90.96875 582.917969 91.117188 583.871094 91.402344 L 583.550781 94.082031 C 582.6875 93.761719 581.714844 93.535156 580.675781 93.535156 C 578.054688 93.535156 576.730469 95.464844 576.730469 98.484375 C 576.730469 101.109375 577.679688 103.097656 580.527344 103.097656 C 581.621094 103.097656 582.800781 102.839844 583.640625 102.410156 L 583.902344 105.03125 C 582.953125 105.402344 581.453125 105.75 579.867188 105.75 "/>
<path fill-rule="nonzero" fill="rgb(0%, 0%, 0%)" fill-opacity="1" d="M 596.949219 105.515625 L 596.949219 96.300781 C 596.949219 94.511719 596.460938 93.476562 594.816406 93.476562 C 592.65625 93.476562 591.074219 95.746094 591.074219 98.628906 L 591.074219 105.515625 L 587.988281 105.515625 L 587.988281 84.488281 L 591.074219 84.488281 L 591.074219 90.96875 C 591.074219 91.863281 591.015625 93.074219 590.808594 93.851562 L 590.875 93.882812 C 591.707031 92.09375 593.410156 90.914062 595.738281 90.914062 C 598.996094 90.914062 600 92.957031 600 95.492188 L 600 105.515625 Z M 596.949219 105.515625 "/>
<path fill-rule="nonzero" fill="rgb(0%, 0%, 0%)" fill-opacity="1" d="M 4.347656 144.433594 C 2.933594 144.433594 1.550781 144.261719 0.433594 143.976562 L 0.601562 141.011719 C 1.695312 141.414062 3.222656 141.730469 4.632812 141.730469 C 6.765625 141.730469 8.492188 140.835938 8.492188 138.734375 C 8.492188 134.640625 0 136.367188 0 130.09375 C 0 126.75 2.621094 124.417969 7.136719 124.417969 C 8.292969 124.417969 9.472656 124.5625 10.652344 124.761719 L 10.480469 127.558594 C 9.355469 127.207031 8.121094 127.007812 6.96875 127.007812 C 4.546875 127.007812 3.308594 128.136719 3.308594 129.742188 C 3.308594 133.632812 11.804688 132.195312 11.804688 138.269531 C 11.804688 141.84375 8.984375 144.433594 4.347656 144.433594 "/>
<path fill-rule="nonzero" fill="rgb(0%, 0%, 0%)" fill-opacity="1" d="M 31.558594 144.144531 L 28.160156 144.144531 L 25.683594 136.652344 C 25.371094 135.710938 25.109375 134.726562 24.851562 133.632812 L 24.824219 133.632812 C 24.53125 134.902344 24.214844 136.027344 23.84375 137.230469 L 21.679688 144.144531 L 18.425781 144.144531 L 14.019531 129.832031 L 17.386719 129.832031 L 19.289062 136.488281 C 19.667969 137.839844 20.070312 139.195312 20.359375 140.488281 L 20.382812 140.488281 C 20.671875 139.078125 21.015625 137.808594 21.394531 136.574219 L 23.527344 129.832031 L 26.632812 129.832031 L 28.792969 136.457031 C 29.34375 138.1875 29.632812 139.253906 29.917969 140.488281 L 29.953125 140.488281 C 30.238281 139.164062 30.523438 138.039062 30.957031 136.597656 L 32.945312 129.832031 L 36.140625 129.832031 Z M 31.558594 144.144531 "/>
<path fill-rule="nonzero" fill="rgb(0%, 0%, 0%)" fill-opacity="1" d="M 39.679688 129.832031 L 42.761719 129.832031 L 42.761719 144.144531 L 39.679688 144.144531 Z M 41.234375 127.703125 C 40.140625 127.703125 39.25 126.839844 39.25 125.769531 C 39.25 124.707031 40.140625 123.84375 41.234375 123.84375 C 42.300781 123.84375 43.191406 124.675781 43.191406 125.769531 C 43.191406 126.839844 42.300781 127.703125 41.234375 127.703125 "/>
<path fill-rule="nonzero" fill="rgb(0%, 0%, 0%)" fill-opacity="1" d="M 50.542969 144.433594 C 49.476562 144.433594 48.414062 144.320312 47.519531 144.144531 L 47.601562 141.523438 C 48.496094 141.785156 49.617188 141.984375 50.71875 141.984375 C 52.382812 141.984375 53.539062 141.265625 53.539062 140.082031 C 53.539062 137.207031 47.253906 138.933594 47.253906 133.976562 C 47.253906 131.5 49.277344 129.539062 53.164062 129.539062 C 54 129.539062 54.972656 129.660156 55.835938 129.800781 L 55.753906 132.308594 C 54.890625 132.050781 53.878906 131.90625 52.960938 131.90625 C 51.257812 131.90625 50.425781 132.59375 50.425781 133.691406 C 50.425781 136.457031 56.761719 135.046875 56.761719 139.796875 C 56.761719 142.476562 54.371094 144.433594 50.542969 144.433594 "/>
<path fill-rule="nonzero" fill="rgb(0%, 0%, 0%)" fill-opacity="1" d="M 63.59375 144.433594 C 62.523438 144.433594 61.460938 144.320312 60.566406 144.144531 L 60.652344 141.523438 C 61.546875 141.785156 62.664062 141.984375 63.757812 141.984375 C 65.429688 141.984375 66.585938 141.265625 66.585938 140.082031 C 66.585938 137.207031 60.308594 138.933594 60.308594 133.976562 C 60.308594 131.5 62.324219 129.539062 66.214844 129.539062 C 67.046875 129.539062 68.023438 129.660156 68.890625 129.800781 L 68.804688 132.308594 C 67.941406 132.050781 66.933594 131.90625 66.007812 131.90625 C 64.3125 131.90625 63.472656 132.59375 63.472656 133.691406 C 63.472656 136.457031 69.8125 135.046875 69.8125 139.796875 C 69.8125 142.476562 67.421875 144.433594 63.59375 144.433594 "/>
<path fill-rule="nonzero" fill="rgb(0%, 0%, 0%)" fill-opacity="1" d="M 84.617188 127.351562 L 84.617188 133.058594 L 91.242188 133.058594 L 91.242188 135.625 L 84.617188 135.625 L 84.617188 144.144531 L 81.472656 144.144531 L 81.472656 124.707031 L 91.617188 124.707031 L 91.617188 127.351562 Z M 84.617188 127.351562 "/>
<path fill-rule="nonzero" fill="rgb(0%, 0%, 0%)" fill-opacity="1" d="M 106.414062 135.734375 C 106.414062 132.335938 104.652344 129.539062 100.5625 129.539062 C 96.390625 129.539062 94.027344 132.769531 94.027344 137.085938 C 94.027344 142.128906 96.476562 144.433594 100.941406 144.433594 C 102.695312 144.433594 104.457031 144.117188 105.894531 143.511719 L 105.605469 141.066406 C 104.421875 141.644531 102.894531 141.984375 101.429688 141.984375 C 98.578125 141.984375 97.109375 140.488281 97.199219 137.175781 L 106.324219 137.175781 C 106.386719 136.628906 106.414062 136.140625 106.414062 135.734375 M 103.328125 135.015625 L 97.253906 135.015625 C 97.511719 133.085938 98.726562 131.820312 100.453125 131.820312 C 102.265625 131.820312 103.394531 133.058594 103.328125 135.015625 "/>
<path fill-rule="nonzero" fill="rgb(0%, 0%, 0%)" fill-opacity="1" d="M 122.367188 144.144531 L 122.367188 123.121094 L 119.316406 123.121094 L 119.316406 129.71875 C 118.539062 129.660156 117.847656 129.601562 117.160156 129.601562 C 112.519531 129.601562 109.667969 132.769531 109.667969 137.691406 C 109.667969 141.84375 111.425781 144.433594 114.941406 144.433594 C 117.160156 144.433594 118.828125 143.222656 119.601562 141.46875 L 119.667969 141.46875 C 119.519531 142.277344 119.464844 143.398438 119.464844 144.144531 Z M 119.316406 136.746094 C 119.316406 139.195312 118.050781 141.898438 115.773438 141.898438 C 113.816406 141.898438 112.921875 140.28125 112.921875 137.40625 C 112.921875 133.546875 114.59375 132.050781 117.042969 132.050781 C 117.789062 132.050781 118.539062 132.136719 119.316406 132.308594 Z M 119.316406 136.746094 "/>
<path fill-rule="nonzero" fill="rgb(0%, 0%, 0%)" fill-opacity="1" d="M 139.019531 135.734375 C 139.019531 132.335938 137.261719 129.539062 133.171875 129.539062 C 128.992188 129.539062 126.628906 132.769531 126.628906 137.085938 C 126.628906 142.128906 129.085938 144.433594 133.542969 144.433594 C 135.296875 144.433594 137.058594 144.117188 138.496094 143.511719 L 138.210938 141.066406 C 137.035156 141.644531 135.5 141.984375 134.039062 141.984375 C 131.183594 141.984375 129.710938 140.488281 129.800781 137.175781 L 138.925781 137.175781 C 138.988281 136.628906 139.019531 136.140625 139.019531 135.734375 M 135.929688 135.015625 L 129.855469 135.015625 C 130.117188 133.085938 131.328125 131.820312 133.054688 131.820312 C 134.867188 131.820312 135.996094 133.058594 135.929688 135.015625 "/>
<path fill-rule="nonzero" fill="rgb(0%, 0%, 0%)" fill-opacity="1" d="M 150.742188 132.570312 C 147.886719 132.050781 146.507812 134.035156 146.507812 138.324219 L 146.507812 144.144531 L 143.421875 144.144531 L 143.421875 129.832031 L 146.363281 129.832031 C 146.363281 130.636719 146.277344 131.90625 146.078125 133 L 146.132812 133 C 146.765625 131.066406 148.210938 129.285156 150.886719 129.542969 Z M 150.742188 132.570312 "/>
<path fill-rule="nonzero" fill="rgb(0%, 0%, 0%)" fill-opacity="1" d="M 164.625 144.144531 C 164.5625 142.9375 164.535156 141.46875 164.535156 140.226562 L 164.535156 134.382812 C 164.535156 131.441406 163.324219 129.539062 158.945312 129.539062 C 157.105469 129.539062 155.316406 129.945312 153.90625 130.492188 L 154.199219 133.113281 C 155.402344 132.363281 157.128906 131.964844 158.460938 131.964844 C 160.703125 131.964844 161.457031 132.882812 161.457031 134.671875 L 161.457031 135.589844 C 156.300781 135.589844 153.011719 137.492188 153.011719 140.78125 C 153.011719 143.046875 154.574219 144.433594 157.019531 144.433594 C 159.296875 144.433594 161.082031 143.167969 161.773438 141.46875 L 161.796875 141.496094 C 161.6875 142.273438 161.65625 143.222656 161.65625 144.140625 L 164.625 144.140625 Z M 161.457031 137.953125 C 161.457031 139.996094 160.046875 142.015625 157.9375 142.015625 C 156.734375 142.015625 155.980469 141.320312 155.980469 140.257812 C 155.980469 139.019531 156.964844 137.664062 161.457031 137.664062 Z M 161.457031 137.953125 "/>
<path fill-rule="nonzero" fill="rgb(0%, 0%, 0%)" fill-opacity="1" d="M 170.007812 123.121094 L 173.085938 123.121094 L 173.085938 144.148438 L 170.007812 144.148438 Z M 170.007812 123.121094 "/>
<path fill-rule="nonzero" fill="rgb(0%, 0%, 0%)" fill-opacity="1" d="M 185.707031 124.707031 L 188.847656 124.707031 L 188.847656 144.144531 L 185.707031 144.144531 Z M 185.707031 124.707031 "/>
<path fill-rule="nonzero" fill="rgb(0%, 0%, 0%)" fill-opacity="1" d="M 203.25 144.144531 L 203.25 134.925781 C 203.25 133.144531 202.753906 132.105469 201.117188 132.105469 C 198.957031 132.105469 197.371094 134.382812 197.371094 137.230469 L 197.371094 144.144531 L 194.289062 144.144531 L 194.289062 129.832031 L 197.230469 129.832031 C 197.230469 130.582031 197.164062 131.820312 197.027344 132.628906 L 197.054688 132.652344 C 197.890625 130.8125 199.617188 129.542969 202.035156 129.542969 C 205.292969 129.542969 206.300781 131.589844 206.300781 134.125 L 206.300781 144.144531 Z M 203.25 144.144531 "/>
<path fill-rule="nonzero" fill="rgb(0%, 0%, 0%)" fill-opacity="1" d="M 214.070312 144.433594 C 213.007812 144.433594 211.941406 144.320312 211.050781 144.144531 L 211.140625 141.523438 C 212.035156 141.785156 213.152344 141.984375 214.246094 141.984375 C 215.917969 141.984375 217.070312 141.265625 217.070312 140.082031 C 217.070312 137.207031 210.792969 138.933594 210.792969 133.976562 C 210.792969 131.5 212.808594 129.539062 216.699219 129.539062 C 217.53125 129.539062 218.515625 129.660156 219.378906 129.800781 L 219.292969 132.308594 C 218.429688 132.050781 217.421875 131.90625 216.496094 131.90625 C 214.800781 131.90625 213.960938 132.59375 213.960938 133.691406 C 213.960938 136.457031 220.296875 135.046875 220.296875 139.796875 C 220.296875 142.476562 217.90625 144.433594 214.070312 144.433594 "/>
<path fill-rule="nonzero" fill="rgb(0%, 0%, 0%)" fill-opacity="1" d="M 229.339844 144.410156 C 226.285156 144.410156 225.367188 143.222656 225.367188 140.027344 L 225.367188 132.222656 L 222.628906 132.222656 L 222.628906 129.832031 L 225.367188 129.832031 L 225.367188 125.277344 L 228.417969 124.441406 L 228.417969 129.832031 L 232.191406 129.832031 L 232.191406 132.222656 L 228.449219 132.222656 L 228.449219 139.078125 C 228.449219 141.214844 228.878906 141.785156 230.320312 141.785156 C 230.953125 141.785156 231.644531 141.699219 232.191406 141.554688 L 232.191406 144.089844 C 231.359375 144.265625 230.289062 144.410156 229.339844 144.410156 "/>
<path fill-rule="nonzero" fill="rgb(0%, 0%, 0%)" fill-opacity="1" d="M 239.503906 129.832031 L 236.425781 129.832031 L 236.425781 144.144531 L 239.503906 144.144531 Z M 239.9375 125.769531 C 239.9375 124.675781 239.050781 123.84375 237.984375 123.84375 C 236.890625 123.84375 235.996094 124.707031 235.996094 125.769531 C 235.996094 126.839844 236.890625 127.703125 237.984375 127.703125 C 239.050781 127.703125 239.9375 126.839844 239.9375 125.769531 "/>
<path fill-rule="nonzero" fill="rgb(0%, 0%, 0%)" fill-opacity="1" d="M 249.503906 144.410156 C 246.453125 144.410156 245.527344 143.222656 245.527344 140.027344 L 245.527344 132.222656 L 242.789062 132.222656 L 242.789062 129.832031 L 245.527344 129.832031 L 245.527344 125.277344 L 248.578125 124.441406 L 248.578125 129.832031 L 252.355469 129.832031 L 252.355469 132.222656 L 248.613281 132.222656 L 248.613281 139.078125 C 248.613281 141.214844 249.042969 141.785156 250.480469 141.785156 C 251.117188 141.785156 251.804688 141.699219 252.355469 141.554688 L 252.355469 144.089844 C 251.519531 144.265625 250.453125 144.410156 249.503906 144.410156 "/>
<path fill-rule="nonzero" fill="rgb(0%, 0%, 0%)" fill-opacity="1" d="M 265.660156 144.144531 C 265.660156 143.398438 265.71875 142.160156 265.863281 141.351562 L 265.832031 141.320312 C 265 143.167969 263.269531 144.433594 260.855469 144.433594 C 257.597656 144.433594 256.585938 142.386719 256.585938 139.851562 L 256.585938 129.832031 L 259.640625 129.832031 L 259.640625 139.046875 C 259.640625 140.835938 260.128906 141.875 261.773438 141.875 C 263.929688 141.875 265.515625 139.59375 265.515625 136.746094 L 265.515625 129.832031 L 268.597656 129.832031 L 268.597656 144.144531 Z M 265.660156 144.144531 "/>
<path fill-rule="nonzero" fill="rgb(0%, 0%, 0%)" fill-opacity="1" d="M 278.59375 144.410156 C 275.535156 144.410156 274.617188 143.222656 274.617188 140.027344 L 274.617188 132.222656 L 271.882812 132.222656 L 271.882812 129.832031 L 274.617188 129.832031 L 274.617188 125.277344 L 277.667969 124.441406 L 277.667969 129.832031 L 281.445312 129.832031 L 281.445312 132.222656 L 277.699219 132.222656 L 277.699219 139.078125 C 277.699219 141.214844 278.128906 141.785156 279.570312 141.785156 C 280.203125 141.785156 280.898438 141.699219 281.445312 141.554688 L 281.445312 144.089844 C 280.613281 144.265625 279.542969 144.410156 278.59375 144.410156 "/>
<path fill-rule="nonzero" fill="rgb(0%, 0%, 0%)" fill-opacity="1" d="M 296.910156 135.734375 C 296.910156 132.335938 295.15625 129.539062 291.066406 129.539062 C 286.886719 129.539062 284.527344 132.769531 284.527344 137.085938 C 284.527344 142.128906 286.976562 144.433594 291.445312 144.433594 C 293.195312 144.433594 294.953125 144.117188 296.394531 143.511719 L 296.101562 141.066406 C 294.929688 141.644531 293.402344 141.984375 291.929688 141.984375 C 289.078125 141.984375 287.609375 140.488281 287.695312 137.175781 L 296.824219 137.175781 C 296.886719 136.628906 296.910156 136.140625 296.910156 135.734375 M 293.832031 135.015625 L 287.75 135.015625 C 288.015625 133.085938 289.222656 131.820312 290.949219 131.820312 C 292.769531 131.820312 293.886719 133.058594 293.832031 135.015625 "/>
<path fill-rule="nonzero" fill="rgb(0%, 0%, 0%)" fill-opacity="1" d="M 320.996094 136.71875 C 320.996094 131.675781 318.285156 129.542969 314.453125 129.542969 C 310.105469 129.542969 307.3125 132.859375 307.3125 137.175781 C 307.3125 142.214844 309.902344 144.433594 313.878906 144.433594 C 318.109375 144.433594 320.996094 141.121094 320.996094 136.71875 M 317.820312 136.921875 C 317.820312 140.226562 316.152344 141.785156 314.167969 141.785156 C 311.777344 141.785156 310.507812 140.082031 310.507812 136.859375 C 310.507812 133.578125 312.320312 132.136719 314.191406 132.136719 C 316.640625 132.136719 317.820312 133.863281 317.820312 136.921875 "/>
<path fill-rule="nonzero" fill="rgb(0%, 0%, 0%)" fill-opacity="1" d="M 333.75 125.710938 C 333.117188 125.511719 332.425781 125.425781 331.792969 125.425781 C 329.945312 125.425781 329.113281 126.433594 329.113281 128.675781 L 329.113281 129.832031 L 332.832031 129.832031 L 332.832031 132.222656 L 329.113281 132.222656 L 329.113281 144.144531 L 326.058594 144.144531 L 326.058594 132.222656 L 323.320312 132.222656 L 323.320312 129.832031 L 326.058594 129.832031 L 326.058594 128.730469 C 326.058594 124.816406 327.933594 122.914062 331.648438 122.914062 C 332.453125 122.914062 333.234375 123.003906 333.980469 123.179688 Z M 333.75 125.710938 "/>
<path fill-rule="nonzero" fill="rgb(0%, 0%, 0%)" fill-opacity="1" d="M 349.269531 127.351562 L 349.269531 144.144531 L 346.128906 144.144531 L 346.128906 127.351562 L 340.800781 127.351562 L 340.800781 124.707031 L 354.628906 124.707031 L 354.628906 127.351562 Z M 349.269531 127.351562 "/>
<path fill-rule="nonzero" fill="rgb(0%, 0%, 0%)" fill-opacity="1" d="M 367.035156 135.734375 C 367.035156 132.335938 365.277344 129.539062 361.1875 129.539062 C 357.015625 129.539062 354.648438 132.769531 354.648438 137.085938 C 354.648438 142.128906 357.09375 144.433594 361.5625 144.433594 C 363.320312 144.433594 365.078125 144.117188 366.515625 143.511719 L 366.230469 141.066406 C 365.046875 141.644531 363.519531 141.984375 362.050781 141.984375 C 359.199219 141.984375 357.730469 140.488281 357.816406 137.175781 L 366.949219 137.175781 C 367.003906 136.628906 367.035156 136.140625 367.035156 135.734375 M 363.953125 135.015625 L 357.878906 135.015625 C 358.132812 133.085938 359.34375 131.820312 361.078125 131.820312 C 362.886719 131.820312 364.007812 133.058594 363.953125 135.015625 "/>
<path fill-rule="nonzero" fill="rgb(0%, 0%, 0%)" fill-opacity="1" d="M 376.652344 144.378906 C 372.96875 144.378906 370.292969 142.5625 370.292969 137.460938 C 370.292969 132.914062 372.628906 129.601562 377.550781 129.601562 C 378.617188 129.601562 379.710938 129.742188 380.660156 130.035156 L 380.347656 132.714844 C 379.480469 132.398438 378.5 132.160156 377.460938 132.160156 C 374.839844 132.160156 373.519531 134.097656 373.519531 137.121094 C 373.519531 139.742188 374.464844 141.730469 377.316406 141.730469 C 378.414062 141.730469 379.59375 141.46875 380.429688 141.035156 L 380.6875 143.65625 C 379.738281 144.03125 378.242188 144.378906 376.652344 144.378906 "/>
<path fill-rule="nonzero" fill="rgb(0%, 0%, 0%)" fill-opacity="1" d="M 393.734375 144.144531 L 393.734375 134.925781 C 393.734375 133.144531 393.246094 132.105469 391.605469 132.105469 C 389.441406 132.105469 387.859375 134.382812 387.859375 137.261719 L 387.859375 144.144531 L 384.773438 144.144531 L 384.773438 123.121094 L 387.859375 123.121094 L 387.859375 129.601562 C 387.859375 130.496094 387.804688 131.707031 387.605469 132.484375 L 387.660156 132.507812 C 388.492188 130.726562 390.195312 129.542969 392.527344 129.542969 C 395.78125 129.542969 396.785156 131.589844 396.785156 134.125 L 396.785156 144.144531 Z M 393.734375 144.144531 "/>
<path fill-rule="nonzero" fill="rgb(0%, 0%, 0%)" fill-opacity="1" d="M 411.160156 144.144531 L 411.160156 134.925781 C 411.160156 133.144531 410.671875 132.105469 409.035156 132.105469 C 406.871094 132.105469 405.285156 134.382812 405.285156 137.230469 L 405.285156 144.144531 L 402.207031 144.144531 L 402.207031 129.832031 L 405.136719 129.832031 C 405.136719 130.582031 405.082031 131.820312 404.941406 132.628906 L 404.972656 132.652344 C 405.804688 130.8125 407.53125 129.542969 409.953125 129.542969 C 413.203125 129.542969 414.214844 131.589844 414.214844 134.125 L 414.214844 144.144531 Z M 411.160156 144.144531 "/>
<path fill-rule="nonzero" fill="rgb(0%, 0%, 0%)" fill-opacity="1" d="M 432.097656 136.71875 C 432.097656 131.675781 429.394531 129.542969 425.5625 129.542969 C 421.214844 129.542969 418.421875 132.859375 418.421875 137.175781 C 418.421875 142.214844 421.015625 144.433594 424.984375 144.433594 C 429.222656 144.433594 432.097656 141.121094 432.097656 136.71875 M 428.9375 136.921875 C 428.9375 140.226562 427.265625 141.785156 425.273438 141.785156 C 422.882812 141.785156 421.617188 140.082031 421.617188 136.859375 C 421.617188 133.578125 423.433594 132.136719 425.308594 132.136719 C 427.75 132.136719 428.9375 133.863281 428.9375 136.921875 "/>
<path fill-rule="nonzero" fill="rgb(0%, 0%, 0%)" fill-opacity="1" d="M 436.367188 123.121094 L 439.453125 123.121094 L 439.453125 144.148438 L 436.367188 144.148438 Z M 436.367188 123.121094 "/>
<path fill-rule="nonzero" fill="rgb(0%, 0%, 0%)" fill-opacity="1" d="M 457.332031 136.71875 C 457.332031 131.675781 454.628906 129.542969 450.796875 129.542969 C 446.445312 129.542969 443.648438 132.859375 443.648438 137.175781 C 443.648438 142.214844 446.242188 144.433594 450.21875 144.433594 C 454.457031 144.433594 457.332031 141.121094 457.332031 136.71875 M 454.164062 136.921875 C 454.164062 140.226562 452.488281 141.785156 450.503906 141.785156 C 448.117188 141.785156 446.847656 140.082031 446.847656 136.859375 C 446.847656 133.578125 448.664062 132.136719 450.535156 132.136719 C 452.984375 132.136719 454.164062 133.863281 454.164062 136.921875 "/>
<g clip-path="url(#clip-0)">
<path fill-rule="nonzero" fill="rgb(0%, 0%, 0%)" fill-opacity="1" d="M 471.1875 146.421875 C 471.1875 147.972656 469.691406 149.132812 467.011719 149.132812 C 464.9375 149.132812 463.496094 148.269531 463.496094 146.742188 C 463.496094 145.757812 464.105469 144.894531 465.078125 144.347656 C 465.308594 144.378906 465.597656 144.378906 465.855469 144.378906 L 468.535156 144.378906 C 470.351562 144.378906 471.1875 145.183594 471.1875 146.421875 M 474.238281 146.019531 C 474.238281 143.34375 472.480469 141.875 469.371094 141.875 L 466.925781 141.875 C 465.199219 141.875 464.5625 141.582031 464.5625 140.863281 C 464.5625 140.457031 464.820312 140.027344 465.398438 139.796875 C 465.832031 139.886719 466.492188 139.941406 467.035156 139.941406 C 471.070312 139.941406 473.230469 137.753906 473.230469 134.640625 C 473.230469 133.601562 472.859375 132.738281 472.257812 132.25 L 474.441406 132.25 L 474.441406 129.832031 L 469.601562 129.832031 C 468.828125 129.660156 468.105469 129.539062 467.242188 129.539062 C 463.152344 129.539062 460.839844 132.074219 460.839844 135.101562 C 460.839844 136.886719 461.570312 138.355469 462.980469 139.132812 C 461.972656 139.5625 461.339844 140.546875 461.339844 141.582031 C 461.339844 142.53125 461.882812 143.277344 462.746094 143.710938 C 461.511719 144.347656 460.445312 145.703125 460.445312 147.316406 C 460.445312 150.082031 462.78125 151.519531 466.523438 151.519531 C 471.132812 151.523438 474.238281 149.074219 474.238281 146.019531 M 470.269531 134.839844 C 470.269531 136.71875 469 137.785156 467.070312 137.785156 C 464.992188 137.785156 463.84375 136.6875 463.84375 134.816406 C 463.84375 133.058594 465.050781 131.820312 467.101562 131.820312 C 469.082031 131.820312 470.269531 132.941406 470.269531 134.839844 "/>
</g>
<g clip-path="url(#clip-1)">
<path fill-rule="nonzero" fill="rgb(0%, 0%, 0%)" fill-opacity="1" d="M 484.613281 145.527344 C 482.9375 149.996094 481.527344 151.375 478.300781 151.375 C 477.722656 151.375 476.949219 151.292969 476.371094 151.175781 L 476.601562 148.46875 C 477.234375 148.703125 477.8125 148.785156 478.476562 148.785156 C 479.914062 148.785156 480.71875 148.125 481.613281 145.675781 L 482.191406 144.144531 L 476.835938 129.832031 L 480.289062 129.832031 L 482.621094 136.367188 C 483.078125 137.636719 483.429688 138.902344 483.75 140.117188 L 483.777344 140.117188 C 484.0625 138.964844 484.667969 137.121094 485.1875 135.652344 L 487.234375 129.832031 L 490.542969 129.832031 Z M 484.613281 145.527344 "/>
</g>
<path fill-rule="nonzero" fill="rgb(0%, 0%, 0%)" fill-opacity="1" d="M 500.132812 144.144531 L 500.132812 141.753906 L 507.792969 129.570312 C 508.257812 128.824219 508.71875 128.160156 509.230469 127.472656 C 508.402344 127.496094 507.277344 127.496094 505.289062 127.496094 L 500.421875 127.496094 L 500.421875 124.707031 L 512.949219 124.707031 L 512.949219 127.179688 L 504.882812 139.769531 C 504.570312 140.316406 504.25 140.78125 503.875 141.320312 C 504.394531 141.265625 505.953125 141.265625 508.433594 141.265625 L 513.066406 141.265625 L 513.066406 144.140625 L 500.132812 144.140625 Z M 500.132812 144.144531 "/>
<path fill-rule="nonzero" fill="rgb(0%, 0%, 0%)" fill-opacity="1" d="M 526.105469 144.144531 C 526.105469 143.398438 526.171875 142.160156 526.3125 141.351562 L 526.28125 141.320312 C 525.449219 143.167969 523.714844 144.433594 521.300781 144.433594 C 518.050781 144.433594 517.039062 142.386719 517.039062 139.851562 L 517.039062 129.832031 L 520.085938 129.832031 L 520.085938 139.046875 C 520.085938 140.835938 520.578125 141.875 522.21875 141.875 C 524.378906 141.875 525.964844 139.59375 525.964844 136.746094 L 525.964844 129.832031 L 529.046875 129.832031 L 529.046875 144.144531 Z M 526.105469 144.144531 "/>
<path fill-rule="nonzero" fill="rgb(0%, 0%, 0%)" fill-opacity="1" d="M 541.777344 132.570312 C 538.925781 132.050781 537.546875 134.035156 537.546875 138.324219 L 537.546875 144.144531 L 534.464844 144.144531 L 534.464844 129.832031 L 537.402344 129.832031 C 537.402344 130.636719 537.316406 131.90625 537.113281 133 L 537.167969 133 C 537.808594 131.066406 539.246094 129.285156 541.921875 129.542969 Z M 541.777344 132.570312 "/>
<path fill-rule="nonzero" fill="rgb(0%, 0%, 0%)" fill-opacity="1" d="M 545.605469 129.832031 L 548.695312 129.832031 L 548.695312 144.144531 L 545.605469 144.144531 Z M 547.167969 127.703125 C 546.074219 127.703125 545.175781 126.839844 545.175781 125.769531 C 545.175781 124.707031 546.074219 123.84375 547.167969 123.84375 C 548.234375 123.84375 549.125 124.675781 549.125 125.769531 C 549.125 126.839844 548.234375 127.703125 547.167969 127.703125 "/>
<path fill-rule="nonzero" fill="rgb(0%, 0%, 0%)" fill-opacity="1" d="M 559.316406 144.378906 C 555.632812 144.378906 552.957031 142.5625 552.957031 137.460938 C 552.957031 132.914062 555.289062 129.601562 560.210938 129.601562 C 561.273438 129.601562 562.378906 129.742188 563.320312 130.035156 L 563.011719 132.714844 C 562.148438 132.398438 561.164062 132.160156 560.125 132.160156 C 557.507812 132.160156 556.183594 134.097656 556.183594 137.121094 C 556.183594 139.742188 557.132812 141.730469 559.976562 141.730469 C 561.074219 141.730469 562.257812 141.46875 563.09375 141.035156 L 563.351562 143.65625 C 562.402344 144.03125 560.90625 144.378906 559.316406 144.378906 "/>
<path fill-rule="nonzero" fill="rgb(0%, 0%, 0%)" fill-opacity="1" d="M 576.398438 144.144531 L 576.398438 134.925781 C 576.398438 133.144531 575.910156 132.105469 574.269531 132.105469 C 572.109375 132.105469 570.523438 134.382812 570.523438 137.261719 L 570.523438 144.144531 L 567.441406 144.144531 L 567.441406 123.121094 L 570.523438 123.121094 L 570.523438 129.601562 C 570.523438 130.496094 570.464844 131.707031 570.265625 132.484375 L 570.324219 132.507812 C 571.160156 130.726562 572.859375 129.542969 575.1875 129.542969 C 578.445312 129.542969 579.453125 131.589844 579.453125 134.125 L 579.453125 144.144531 Z M 576.398438 144.144531 "/>
</svg>
