<?xml version="1.0" encoding="UTF-8"?>
<svg xmlns="http://www.w3.org/2000/svg" xmlns:xlink="http://www.w3.org/1999/xlink" width="359pt" height="87pt" viewBox="0 0 359 87" version="1.2">
<g id="surface1">
<path style=" stroke:none;fill-rule:nonzero;fill:rgb(0%,0%,0%);fill-opacity:1;" d="M 0 43.050781 L 0 0 L 21.410156 0.441406 C 41.375 0.855469 43.222656 1.109375 48.695312 4.179688 C 51.925781 5.992188 56.371094 10.042969 58.578125 13.183594 C 62.570312 18.867188 62.589844 18.984375 63.042969 39.492188 C 63.660156 67.640625 61.449219 74.265625 48.996094 81.585938 C 43.054688 85.078125 42.019531 85.234375 21.410156 85.660156 L 0 86.101562 Z M 39.09375 62.945312 C 41.953125 59.621094 42.164062 58.246094 42.164062 43.050781 C 42.164062 27.855469 41.953125 26.480469 39.09375 23.15625 C 36.605469 20.261719 34.609375 19.46875 28.554688 18.96875 L 21.082031 18.347656 L 21.082031 67.753906 L 28.554688 67.136719 C 34.609375 66.632812 36.605469 65.839844 39.09375 62.945312 Z M 96.191406 43.050781 L 96.191406 0.226562 L 109.367188 0.226562 L 109.367188 85.875 L 96.191406 85.875 Z M 133.085938 43.050781 L 133.085938 0.226562 L 145.054688 0.226562 L 164.433594 29.542969 L 183.816406 58.863281 L 184.167969 29.542969 L 184.523438 0.226562 L 197.652344 0.226562 L 197.652344 85.875 L 191.390625 85.863281 L 185.132812 85.851562 L 166.027344 56.597656 L 146.921875 27.339844 L 146.566406 56.609375 L 146.210938 85.875 L 133.085938 85.875 Z M 221.367188 43.050781 L 221.367188 0.226562 L 275.394531 0.226562 L 275.394531 12.085938 L 234.546875 12.085938 L 234.546875 38.4375 L 270.121094 38.4375 L 270.121094 48.980469 L 234.546875 48.980469 L 234.546875 85.875 L 221.367188 85.875 Z M 292.523438 43.050781 L 292.523438 0.226562 L 305.699219 0.226562 L 305.699219 42.625 L 322.894531 21.425781 L 340.09375 0.226562 L 348.09375 0.226562 C 355.511719 0.226562 355.964844 0.394531 354.316406 2.53125 C 353.335938 3.800781 347.277344 11.222656 340.84375 19.027344 C 333.480469 27.964844 329.433594 33.949219 329.910156 35.191406 C 330.328125 36.277344 336.628906 47.226562 343.910156 59.523438 C 351.195312 71.816406 357.511719 82.808594 357.949219 83.945312 C 358.625 85.707031 357.59375 85.957031 351.015625 85.617188 L 343.292969 85.214844 L 332.4375 66.109375 C 326.46875 55.601562 321.308594 46.410156 320.96875 45.6875 C 320.632812 44.960938 317.070312 47.925781 313.058594 52.273438 L 305.761719 60.179688 L 305.699219 85.875 L 292.523438 85.875 Z M 292.523438 43.050781 "/>
</g>
</svg>
