<?xml version="1.0" encoding="UTF-8"?>
<svg xmlns="http://www.w3.org/2000/svg" xmlns:xlink="http://www.w3.org/1999/xlink" width="175.95pt" height="47.25pt" viewBox="0 0 175.95 47.25" version="1.2">
<defs>
<clipPath id="clip1">
  <path d="M 1.351562 27 L 6 27 L 6 34 L 1.351562 34 Z M 1.351562 27 "/>
</clipPath>
<clipPath id="clip2">
  <path d="M 171 27 L 174.550781 27 L 174.550781 34 L 171 34 Z M 171 27 "/>
</clipPath>
<clipPath id="clip3">
  <path d="M 1.351562 38 L 6 38 L 6 45 L 1.351562 45 Z M 1.351562 38 "/>
</clipPath>
<clipPath id="clip4">
  <path d="M 132 40 L 137 40 L 137 46.511719 L 132 46.511719 Z M 132 40 "/>
</clipPath>
<clipPath id="clip5">
  <path d="M 136 40 L 141 40 L 141 46.511719 L 136 46.511719 Z M 136 40 "/>
</clipPath>
<clipPath id="clip6">
  <path d="M 1.351562 0 L 54 0 L 54 20 L 1.351562 20 Z M 1.351562 0 "/>
</clipPath>
</defs>
<g id="surface1">
<g clip-path="url(#clip1)" clip-rule="nonzero">
<path style=" stroke:none;fill-rule:nonzero;fill:rgb(13.719177%,12.156677%,12.547302%);fill-opacity:1;" d="M 1.550781 33.871094 L 1.550781 27.914062 L 5.355469 27.914062 L 5.355469 28.722656 L 2.453125 28.722656 L 2.453125 30.464844 L 4.929688 30.464844 L 4.929688 31.269531 L 2.453125 31.269531 L 2.453125 33.058594 L 5.355469 33.058594 L 5.355469 33.871094 L 1.550781 33.871094 "/>
</g>
<path style=" stroke:none;fill-rule:nonzero;fill:rgb(13.719177%,12.156677%,12.547302%);fill-opacity:1;" d="M 6.503906 33.871094 L 6.503906 29.628906 L 7.355469 29.628906 L 7.355469 33.871094 Z M 6.476562 28.789062 L 6.476562 27.886719 L 7.382812 27.886719 L 7.382812 28.789062 L 6.476562 28.789062 "/>
<path style=" stroke:none;fill-rule:nonzero;fill:rgb(13.719177%,12.156677%,12.547302%);fill-opacity:1;" d="M 10.261719 30.339844 C 9.480469 30.339844 9.375 30.992188 9.375 31.746094 C 9.375 32.496094 9.480469 33.15625 10.261719 33.15625 C 11.03125 33.15625 11.136719 32.496094 11.136719 31.746094 C 11.136719 30.992188 11.027344 30.339844 10.261719 30.339844 Z M 11.15625 33.871094 L 11.15625 33.417969 C 10.835938 33.804688 10.496094 33.917969 10.035156 33.917969 C 9.609375 33.917969 9.230469 33.777344 8.996094 33.542969 C 8.585938 33.125 8.519531 32.449219 8.519531 31.746094 C 8.519531 31.050781 8.585938 30.375 8.996094 29.953125 C 9.230469 29.722656 9.597656 29.578125 10.023438 29.578125 C 10.476562 29.578125 10.828125 29.6875 11.136719 30.054688 L 11.136719 27.914062 L 11.992188 27.914062 L 11.992188 33.871094 L 11.152344 33.871094 "/>
<path style=" stroke:none;fill-rule:nonzero;fill:rgb(13.719177%,12.156677%,12.547302%);fill-opacity:1;" d="M 14.878906 30.339844 C 14.109375 30.339844 14.007812 31 14.007812 31.667969 C 14.007812 32.339844 14.109375 33 14.878906 33 C 15.648438 33 15.742188 32.339844 15.742188 31.667969 C 15.742188 31 15.648438 30.339844 14.878906 30.339844 Z M 14.777344 35.636719 C 14.132812 35.636719 13.722656 35.484375 13.28125 35.074219 L 13.824219 34.53125 C 14.09375 34.78125 14.328125 34.90625 14.746094 34.90625 C 15.464844 34.90625 15.742188 34.398438 15.742188 33.828125 L 15.742188 33.285156 C 15.433594 33.652344 15.082031 33.769531 14.644531 33.769531 C 14.21875 33.769531 13.867188 33.625 13.632812 33.394531 C 13.222656 32.984375 13.15625 32.390625 13.15625 31.667969 C 13.15625 30.949219 13.222656 30.355469 13.632812 29.945312 C 13.867188 29.710938 14.226562 29.578125 14.652344 29.578125 C 15.105469 29.578125 15.449219 29.695312 15.765625 30.082031 L 15.765625 29.628906 L 16.59375 29.628906 L 16.59375 33.847656 C 16.59375 34.882812 15.910156 35.636719 14.777344 35.636719 "/>
<path style=" stroke:none;fill-rule:nonzero;fill:rgb(13.719177%,12.156677%,12.547302%);fill-opacity:1;" d="M 20.375 30.824219 C 20.234375 30.507812 19.941406 30.289062 19.539062 30.289062 C 19.128906 30.289062 18.835938 30.507812 18.695312 30.824219 C 18.609375 31.007812 18.59375 31.140625 18.585938 31.402344 L 20.492188 31.402344 C 20.476562 31.140625 20.460938 31.007812 20.375 30.824219 Z M 18.585938 31.996094 C 18.585938 32.730469 18.960938 33.183594 19.664062 33.183594 C 20.140625 33.183594 20.390625 33.050781 20.695312 32.75 L 21.238281 33.257812 C 20.800781 33.695312 20.390625 33.917969 19.648438 33.917969 C 18.582031 33.917969 17.738281 33.359375 17.738281 31.746094 C 17.738281 30.363281 18.453125 29.578125 19.539062 29.578125 C 20.675781 29.578125 21.335938 30.398438 21.335938 31.636719 L 21.335938 31.996094 L 18.582031 31.996094 "/>
<path style=" stroke:none;fill-rule:nonzero;fill:rgb(13.719177%,12.156677%,12.547302%);fill-opacity:1;" d="M 25.0625 33.871094 L 25.0625 31.285156 C 25.0625 30.625 24.683594 30.339844 24.207031 30.339844 C 23.730469 30.339844 23.328125 30.632812 23.328125 31.285156 L 23.328125 33.871094 L 22.476562 33.871094 L 22.476562 29.628906 L 23.3125 29.628906 L 23.3125 30.054688 C 23.605469 29.738281 24.015625 29.578125 24.441406 29.578125 C 24.875 29.578125 25.234375 29.722656 25.488281 29.960938 C 25.8125 30.28125 25.914062 30.683594 25.914062 31.160156 L 25.914062 33.871094 L 25.0625 33.871094 "/>
<path style=" stroke:none;fill-rule:nonzero;fill:rgb(13.719177%,12.156677%,12.547302%);fill-opacity:1;" d="M 29.320312 28.816406 L 29.320312 27.914062 L 30.089844 27.914062 L 30.089844 28.816406 Z M 29.429688 30.582031 C 29.269531 30.421875 29.054688 30.339844 28.800781 30.339844 C 28.550781 30.339844 28.34375 30.421875 28.183594 30.582031 C 27.921875 30.839844 27.890625 31.285156 27.890625 31.746094 C 27.890625 32.203125 27.925781 32.648438 28.183594 32.90625 C 28.34375 33.066406 28.550781 33.15625 28.800781 33.15625 C 29.054688 33.15625 29.269531 33.066406 29.429688 32.90625 C 29.6875 32.648438 29.722656 32.203125 29.722656 31.746094 C 29.722656 31.285156 29.6875 30.839844 29.429688 30.582031 Z M 27.511719 28.816406 L 27.511719 27.914062 L 28.28125 27.914062 L 28.28125 28.816406 Z M 30.074219 33.417969 C 29.796875 33.703125 29.378906 33.917969 28.800781 33.917969 C 28.226562 33.917969 27.816406 33.703125 27.539062 33.417969 C 27.136719 33 27.035156 32.464844 27.035156 31.746094 C 27.035156 31.03125 27.136719 30.496094 27.539062 30.078125 C 27.816406 29.796875 28.226562 29.578125 28.800781 29.578125 C 29.378906 29.578125 29.796875 29.796875 30.074219 30.078125 C 30.472656 30.5 30.574219 31.035156 30.574219 31.746094 C 30.574219 32.464844 30.472656 33 30.074219 33.417969 "/>
<path style=" stroke:none;fill-rule:nonzero;fill:rgb(13.719177%,12.156677%,12.547302%);fill-opacity:1;" d="M 33.113281 33.917969 C 32.417969 33.917969 31.832031 33.800781 31.328125 33.308594 L 31.890625 32.75 C 32.234375 33.101562 32.691406 33.191406 33.113281 33.191406 C 33.640625 33.191406 34.039062 33.007812 34.039062 32.605469 C 34.039062 32.3125 33.882812 32.144531 33.472656 32.105469 L 32.792969 32.042969 C 31.992188 31.96875 31.539062 31.617188 31.539062 30.875 C 31.539062 30.039062 32.25 29.578125 33.136719 29.578125 C 33.78125 29.578125 34.316406 29.710938 34.710938 30.054688 L 34.171875 30.597656 C 33.90625 30.371094 33.53125 30.289062 33.128906 30.289062 C 32.609375 30.289062 32.359375 30.507812 32.359375 30.832031 C 32.359375 31.125 32.527344 31.277344 32.945312 31.316406 L 33.539062 31.367188 C 34.417969 31.445312 34.878906 31.828125 34.878906 32.574219 C 34.878906 33.460938 34.125 33.917969 33.113281 33.917969 "/>
<path style=" stroke:none;fill-rule:nonzero;fill:rgb(13.719177%,12.156677%,12.547302%);fill-opacity:1;" d="M 37.253906 33.917969 C 36.558594 33.917969 35.972656 33.800781 35.46875 33.308594 L 36.03125 32.75 C 36.375 33.101562 36.835938 33.191406 37.253906 33.191406 C 37.777344 33.191406 38.179688 33.007812 38.179688 32.605469 C 38.179688 32.3125 38.023438 32.144531 37.613281 32.105469 L 36.933594 32.042969 C 36.128906 31.96875 35.679688 31.617188 35.679688 30.875 C 35.679688 30.039062 36.390625 29.578125 37.277344 29.578125 C 37.921875 29.578125 38.457031 29.710938 38.847656 30.054688 L 38.3125 30.597656 C 38.046875 30.371094 37.671875 30.289062 37.269531 30.289062 C 36.75 30.289062 36.5 30.507812 36.5 30.832031 C 36.5 31.125 36.667969 31.277344 37.085938 31.316406 L 37.679688 31.367188 C 38.558594 31.445312 39.019531 31.828125 39.019531 32.574219 C 39.019531 33.460938 38.265625 33.917969 37.253906 33.917969 "/>
<path style=" stroke:none;fill-rule:nonzero;fill:rgb(13.719177%,12.156677%,12.547302%);fill-opacity:1;" d="M 40.0625 33.871094 L 40.0625 29.628906 L 40.917969 29.628906 L 40.917969 33.871094 Z M 40.039062 28.789062 L 40.039062 27.886719 L 40.941406 27.886719 L 40.941406 28.789062 L 40.039062 28.789062 "/>
<path style=" stroke:none;fill-rule:nonzero;fill:rgb(13.719177%,12.156677%,12.547302%);fill-opacity:1;" d="M 43.652344 33.917969 C 42.957031 33.917969 42.371094 33.800781 41.871094 33.308594 L 42.429688 32.75 C 42.773438 33.101562 43.234375 33.191406 43.652344 33.191406 C 44.179688 33.191406 44.582031 33.007812 44.582031 32.605469 C 44.582031 32.3125 44.421875 32.144531 44.011719 32.105469 L 43.332031 32.042969 C 42.53125 31.96875 42.078125 31.617188 42.078125 30.875 C 42.078125 30.039062 42.789062 29.578125 43.675781 29.578125 C 44.320312 29.578125 44.855469 29.710938 45.25 30.054688 L 44.714844 30.597656 C 44.445312 30.371094 44.070312 30.289062 43.667969 30.289062 C 43.148438 30.289062 42.898438 30.507812 42.898438 30.832031 C 42.898438 31.125 43.066406 31.277344 43.484375 31.316406 L 44.078125 31.367188 C 44.957031 31.445312 45.417969 31.828125 45.417969 32.574219 C 45.417969 33.460938 44.664062 33.917969 43.652344 33.917969 "/>
<path style=" stroke:none;fill-rule:nonzero;fill:rgb(13.719177%,12.156677%,12.547302%);fill-opacity:1;" d="M 48.136719 33.917969 C 47.183594 33.917969 46.246094 33.332031 46.246094 31.746094 C 46.246094 30.15625 47.183594 29.578125 48.136719 29.578125 C 48.722656 29.578125 49.132812 29.746094 49.535156 30.171875 L 48.949219 30.742188 C 48.679688 30.449219 48.472656 30.339844 48.136719 30.339844 C 47.808594 30.339844 47.535156 30.472656 47.351562 30.714844 C 47.167969 30.949219 47.101562 31.25 47.101562 31.746094 C 47.101562 32.238281 47.167969 32.546875 47.351562 32.78125 C 47.535156 33.023438 47.808594 33.15625 48.136719 33.15625 C 48.472656 33.15625 48.679688 33.046875 48.949219 32.757812 L 49.535156 33.316406 C 49.132812 33.742188 48.722656 33.917969 48.136719 33.917969 "/>
<path style=" stroke:none;fill-rule:nonzero;fill:rgb(13.719177%,12.156677%,12.547302%);fill-opacity:1;" d="M 53.117188 33.871094 L 53.117188 31.285156 C 53.117188 30.625 52.738281 30.339844 52.261719 30.339844 C 51.785156 30.339844 51.382812 30.632812 51.382812 31.285156 L 51.382812 33.871094 L 50.53125 33.871094 L 50.53125 27.914062 L 51.382812 27.914062 L 51.382812 30.054688 C 51.667969 29.738281 52.0625 29.578125 52.496094 29.578125 C 52.929688 29.578125 53.289062 29.722656 53.542969 29.960938 C 53.867188 30.28125 53.96875 30.683594 53.96875 31.160156 L 53.96875 33.871094 L 53.117188 33.871094 "/>
<path style=" stroke:none;fill-rule:nonzero;fill:rgb(13.719177%,12.156677%,12.547302%);fill-opacity:1;" d="M 57.710938 30.824219 C 57.566406 30.507812 57.273438 30.289062 56.875 30.289062 C 56.464844 30.289062 56.171875 30.507812 56.027344 30.824219 C 55.945312 31.007812 55.925781 31.140625 55.917969 31.402344 L 57.828125 31.402344 C 57.808594 31.140625 57.792969 31.007812 57.707031 30.824219 Z M 55.917969 31.996094 C 55.917969 32.730469 56.296875 33.183594 57 33.183594 C 57.476562 33.183594 57.726562 33.050781 58.027344 32.75 L 58.570312 33.257812 C 58.136719 33.695312 57.726562 33.917969 56.980469 33.917969 C 55.917969 33.917969 55.074219 33.359375 55.074219 31.746094 C 55.074219 30.363281 55.785156 29.578125 56.875 29.578125 C 58.011719 29.578125 58.671875 30.398438 58.671875 31.636719 L 58.671875 31.996094 L 55.917969 31.996094 "/>
<path style=" stroke:none;fill-rule:nonzero;fill:rgb(13.719177%,12.156677%,12.547302%);fill-opacity:1;" d="M 63.945312 28.722656 L 63.945312 33.871094 L 63.039062 33.871094 L 63.039062 28.722656 L 61.398438 28.722656 L 61.398438 27.914062 L 65.582031 27.914062 L 65.582031 28.722656 L 63.945312 28.722656 "/>
<path style=" stroke:none;fill-rule:nonzero;fill:rgb(13.719177%,12.156677%,12.547302%);fill-opacity:1;" d="M 68.269531 30.824219 C 68.125 30.507812 67.835938 30.289062 67.433594 30.289062 C 67.023438 30.289062 66.730469 30.507812 66.585938 30.824219 C 66.503906 31.007812 66.488281 31.140625 66.480469 31.402344 L 68.386719 31.402344 C 68.371094 31.140625 68.351562 31.007812 68.269531 30.824219 Z M 66.480469 31.996094 C 66.480469 32.730469 66.855469 33.183594 67.558594 33.183594 C 68.035156 33.183594 68.285156 33.050781 68.585938 32.75 L 69.128906 33.257812 C 68.695312 33.695312 68.285156 33.917969 67.542969 33.917969 C 66.480469 33.917969 65.632812 33.359375 65.632812 31.746094 C 65.632812 30.363281 66.34375 29.578125 67.433594 29.578125 C 68.570312 29.578125 69.230469 30.398438 69.230469 31.636719 L 69.230469 31.996094 L 66.480469 31.996094 "/>
<path style=" stroke:none;fill-rule:nonzero;fill:rgb(13.719177%,12.156677%,12.547302%);fill-opacity:1;" d="M 72.042969 33.917969 C 71.089844 33.917969 70.152344 33.332031 70.152344 31.746094 C 70.152344 30.15625 71.089844 29.578125 72.042969 29.578125 C 72.628906 29.578125 73.039062 29.746094 73.441406 30.171875 L 72.855469 30.742188 C 72.589844 30.449219 72.378906 30.339844 72.042969 30.339844 C 71.714844 30.339844 71.441406 30.472656 71.257812 30.714844 C 71.074219 30.949219 71.007812 31.25 71.007812 31.746094 C 71.007812 32.238281 71.074219 32.546875 71.257812 32.78125 C 71.441406 33.023438 71.714844 33.15625 72.042969 33.15625 C 72.378906 33.15625 72.589844 33.046875 72.855469 32.757812 L 73.441406 33.316406 C 73.039062 33.742188 72.628906 33.917969 72.042969 33.917969 "/>
<path style=" stroke:none;fill-rule:nonzero;fill:rgb(13.719177%,12.156677%,12.547302%);fill-opacity:1;" d="M 77.023438 33.871094 L 77.023438 31.285156 C 77.023438 30.625 76.644531 30.339844 76.167969 30.339844 C 75.691406 30.339844 75.289062 30.632812 75.289062 31.285156 L 75.289062 33.871094 L 74.4375 33.871094 L 74.4375 27.914062 L 75.289062 27.914062 L 75.289062 30.054688 C 75.574219 29.738281 75.96875 29.578125 76.402344 29.578125 C 76.839844 29.578125 77.199219 29.722656 77.449219 29.960938 C 77.777344 30.28125 77.875 30.683594 77.875 31.160156 L 77.875 33.871094 L 77.023438 33.871094 "/>
<path style=" stroke:none;fill-rule:nonzero;fill:rgb(13.719177%,12.156677%,12.547302%);fill-opacity:1;" d="M 81.78125 33.871094 L 81.78125 31.285156 C 81.78125 30.625 81.40625 30.339844 80.929688 30.339844 C 80.453125 30.339844 80.050781 30.632812 80.050781 31.285156 L 80.050781 33.871094 L 79.195312 33.871094 L 79.195312 29.628906 L 80.035156 29.628906 L 80.035156 30.054688 C 80.324219 29.738281 80.738281 29.578125 81.164062 29.578125 C 81.597656 29.578125 81.957031 29.722656 82.210938 29.960938 C 82.535156 30.28125 82.636719 30.683594 82.636719 31.160156 L 82.636719 33.871094 L 81.78125 33.871094 "/>
<path style=" stroke:none;fill-rule:nonzero;fill:rgb(13.719177%,12.156677%,12.547302%);fill-opacity:1;" d="M 83.957031 33.871094 L 83.957031 29.628906 L 84.8125 29.628906 L 84.8125 33.871094 Z M 83.933594 28.789062 L 83.933594 27.886719 L 84.835938 27.886719 L 84.835938 28.789062 L 83.933594 28.789062 "/>
<path style=" stroke:none;fill-rule:nonzero;fill:rgb(13.719177%,12.156677%,12.547302%);fill-opacity:1;" d="M 87.546875 33.917969 C 86.851562 33.917969 86.269531 33.800781 85.765625 33.308594 L 86.324219 32.75 C 86.667969 33.101562 87.128906 33.191406 87.546875 33.191406 C 88.074219 33.191406 88.476562 33.007812 88.476562 32.605469 C 88.476562 32.3125 88.316406 32.144531 87.90625 32.105469 L 87.230469 32.042969 C 86.425781 31.96875 85.972656 31.617188 85.972656 30.875 C 85.972656 30.039062 86.683594 29.578125 87.570312 29.578125 C 88.214844 29.578125 88.75 29.710938 89.144531 30.054688 L 88.609375 30.597656 C 88.34375 30.371094 87.964844 30.289062 87.5625 30.289062 C 87.046875 30.289062 86.792969 30.507812 86.792969 30.832031 C 86.792969 31.125 86.960938 31.277344 87.378906 31.316406 L 87.972656 31.367188 C 88.855469 31.445312 89.3125 31.828125 89.3125 32.574219 C 89.3125 33.460938 88.558594 33.917969 87.546875 33.917969 "/>
<path style=" stroke:none;fill-rule:nonzero;fill:rgb(13.719177%,12.156677%,12.547302%);fill-opacity:1;" d="M 92.03125 33.917969 C 91.078125 33.917969 90.140625 33.332031 90.140625 31.746094 C 90.140625 30.15625 91.078125 29.578125 92.03125 29.578125 C 92.617188 29.578125 93.027344 29.746094 93.429688 30.171875 L 92.84375 30.742188 C 92.578125 30.449219 92.367188 30.339844 92.03125 30.339844 C 91.707031 30.339844 91.429688 30.472656 91.246094 30.714844 C 91.0625 30.949219 90.996094 31.25 90.996094 31.746094 C 90.996094 32.238281 91.0625 32.546875 91.246094 32.78125 C 91.429688 33.023438 91.707031 33.15625 92.03125 33.15625 C 92.367188 33.15625 92.578125 33.046875 92.84375 32.757812 L 93.429688 33.316406 C 93.027344 33.742188 92.617188 33.917969 92.03125 33.917969 "/>
<path style=" stroke:none;fill-rule:nonzero;fill:rgb(13.719177%,12.156677%,12.547302%);fill-opacity:1;" d="M 97.011719 33.871094 L 97.011719 31.285156 C 97.011719 30.625 96.632812 30.339844 96.15625 30.339844 C 95.679688 30.339844 95.277344 30.632812 95.277344 31.285156 L 95.277344 33.871094 L 94.425781 33.871094 L 94.425781 27.914062 L 95.277344 27.914062 L 95.277344 30.054688 C 95.5625 29.738281 95.957031 29.578125 96.390625 29.578125 C 96.828125 29.578125 97.1875 29.722656 97.4375 29.960938 C 97.765625 30.28125 97.863281 30.683594 97.863281 31.160156 L 97.863281 33.871094 L 97.011719 33.871094 "/>
<path style=" stroke:none;fill-rule:nonzero;fill:rgb(13.719177%,12.156677%,12.547302%);fill-opacity:1;" d="M 101.605469 30.824219 C 101.464844 30.507812 101.167969 30.289062 100.769531 30.289062 C 100.359375 30.289062 100.066406 30.507812 99.921875 30.824219 C 99.839844 31.007812 99.824219 31.140625 99.8125 31.402344 L 101.722656 31.402344 C 101.703125 31.140625 101.6875 31.007812 101.605469 30.824219 Z M 99.8125 31.996094 C 99.8125 32.730469 100.191406 33.183594 100.894531 33.183594 C 101.371094 33.183594 101.621094 33.050781 101.921875 32.75 L 102.464844 33.257812 C 102.03125 33.695312 101.621094 33.917969 100.875 33.917969 C 99.8125 33.917969 98.96875 33.359375 98.96875 31.746094 C 98.96875 30.363281 99.679688 29.578125 100.769531 29.578125 C 101.90625 29.578125 102.566406 30.398438 102.566406 31.636719 L 102.566406 31.996094 L 99.8125 31.996094 "/>
<path style=" stroke:none;fill-rule:nonzero;fill:rgb(13.719177%,12.156677%,12.547302%);fill-opacity:1;" d="M 109.144531 33.871094 L 109.144531 31.269531 L 106.726562 31.269531 L 106.726562 33.871094 L 105.820312 33.871094 L 105.820312 27.914062 L 106.726562 27.914062 L 106.726562 30.457031 L 109.144531 30.457031 L 109.144531 27.914062 L 110.046875 27.914062 L 110.046875 33.871094 L 109.144531 33.871094 "/>
<path style=" stroke:none;fill-rule:nonzero;fill:rgb(13.719177%,12.156677%,12.547302%);fill-opacity:1;" d="M 113.703125 30.582031 C 113.546875 30.421875 113.328125 30.339844 113.078125 30.339844 C 112.824219 30.339844 112.617188 30.421875 112.457031 30.582031 C 112.199219 30.839844 112.164062 31.285156 112.164062 31.746094 C 112.164062 32.203125 112.199219 32.648438 112.457031 32.90625 C 112.617188 33.066406 112.824219 33.15625 113.078125 33.15625 C 113.328125 33.15625 113.546875 33.066406 113.703125 32.90625 C 113.964844 32.648438 113.996094 32.203125 113.996094 31.746094 C 113.996094 31.285156 113.964844 30.839844 113.703125 30.582031 Z M 114.347656 33.417969 C 114.070312 33.703125 113.65625 33.917969 113.078125 33.917969 C 112.5 33.917969 112.089844 33.703125 111.8125 33.417969 C 111.410156 33 111.3125 32.464844 111.3125 31.746094 C 111.3125 31.03125 111.410156 30.496094 111.8125 30.078125 C 112.089844 29.796875 112.5 29.578125 113.078125 29.578125 C 113.65625 29.578125 114.070312 29.796875 114.347656 30.078125 C 114.75 30.5 114.851562 31.035156 114.851562 31.746094 C 114.851562 32.464844 114.75 33 114.347656 33.417969 "/>
<path style=" stroke:none;fill-rule:nonzero;fill:rgb(13.719177%,12.156677%,12.547302%);fill-opacity:1;" d="M 117.683594 33.917969 C 116.734375 33.917969 115.796875 33.332031 115.796875 31.746094 C 115.796875 30.15625 116.734375 29.578125 117.683594 29.578125 C 118.273438 29.578125 118.683594 29.746094 119.082031 30.171875 L 118.496094 30.742188 C 118.230469 30.449219 118.019531 30.339844 117.683594 30.339844 C 117.359375 30.339844 117.082031 30.472656 116.898438 30.714844 C 116.714844 30.949219 116.648438 31.25 116.648438 31.746094 C 116.648438 32.238281 116.714844 32.546875 116.898438 32.78125 C 117.082031 33.023438 117.359375 33.15625 117.683594 33.15625 C 118.019531 33.15625 118.230469 33.046875 118.496094 32.757812 L 119.082031 33.316406 C 118.683594 33.742188 118.273438 33.917969 117.683594 33.917969 "/>
<path style=" stroke:none;fill-rule:nonzero;fill:rgb(13.719177%,12.156677%,12.547302%);fill-opacity:1;" d="M 122.664062 33.871094 L 122.664062 31.285156 C 122.664062 30.625 122.289062 30.339844 121.8125 30.339844 C 121.332031 30.339844 120.933594 30.632812 120.933594 31.285156 L 120.933594 33.871094 L 120.078125 33.871094 L 120.078125 27.914062 L 120.933594 27.914062 L 120.933594 30.054688 C 121.21875 29.738281 121.609375 29.578125 122.046875 29.578125 C 122.480469 29.578125 122.839844 29.722656 123.089844 29.960938 C 123.417969 30.28125 123.519531 30.683594 123.519531 31.160156 L 123.519531 33.871094 L 122.664062 33.871094 "/>
<path style=" stroke:none;fill-rule:nonzero;fill:rgb(13.719177%,12.156677%,12.547302%);fill-opacity:1;" d="M 126.210938 33.917969 C 125.519531 33.917969 124.933594 33.800781 124.429688 33.308594 L 124.992188 32.75 C 125.332031 33.101562 125.792969 33.191406 126.210938 33.191406 C 126.738281 33.191406 127.140625 33.007812 127.140625 32.605469 C 127.140625 32.3125 126.980469 32.144531 126.570312 32.105469 L 125.894531 32.042969 C 125.089844 31.96875 124.640625 31.617188 124.640625 30.875 C 124.640625 30.039062 125.351562 29.578125 126.238281 29.578125 C 126.882812 29.578125 127.417969 29.710938 127.8125 30.054688 L 127.273438 30.597656 C 127.007812 30.371094 126.628906 30.289062 126.230469 30.289062 C 125.710938 30.289062 125.460938 30.507812 125.460938 30.832031 C 125.460938 31.125 125.625 31.277344 126.042969 31.316406 L 126.640625 31.367188 C 127.515625 31.445312 127.976562 31.828125 127.976562 32.574219 C 127.976562 33.460938 127.222656 33.917969 126.210938 33.917969 "/>
<path style=" stroke:none;fill-rule:nonzero;fill:rgb(13.719177%,12.156677%,12.547302%);fill-opacity:1;" d="M 130.699219 33.917969 C 129.742188 33.917969 128.808594 33.332031 128.808594 31.746094 C 128.808594 30.15625 129.742188 29.578125 130.699219 29.578125 C 131.28125 29.578125 131.691406 29.746094 132.09375 30.171875 L 131.507812 30.742188 C 131.242188 30.449219 131.03125 30.339844 130.699219 30.339844 C 130.371094 30.339844 130.09375 30.472656 129.910156 30.714844 C 129.726562 30.949219 129.660156 31.25 129.660156 31.746094 C 129.660156 32.238281 129.726562 32.546875 129.910156 32.78125 C 130.09375 33.023438 130.371094 33.15625 130.699219 33.15625 C 131.03125 33.15625 131.242188 33.046875 131.507812 32.757812 L 132.09375 33.316406 C 131.691406 33.742188 131.28125 33.917969 130.699219 33.917969 "/>
<path style=" stroke:none;fill-rule:nonzero;fill:rgb(13.719177%,12.156677%,12.547302%);fill-opacity:1;" d="M 135.675781 33.871094 L 135.675781 31.285156 C 135.675781 30.625 135.296875 30.339844 134.820312 30.339844 C 134.34375 30.339844 133.941406 30.632812 133.941406 31.285156 L 133.941406 33.871094 L 133.089844 33.871094 L 133.089844 27.914062 L 133.941406 27.914062 L 133.941406 30.054688 C 134.230469 29.738281 134.621094 29.578125 135.054688 29.578125 C 135.492188 29.578125 135.851562 29.722656 136.101562 29.960938 C 136.429688 30.28125 136.527344 30.683594 136.527344 31.160156 L 136.527344 33.871094 L 135.675781 33.871094 "/>
<path style=" stroke:none;fill-rule:nonzero;fill:rgb(13.719177%,12.156677%,12.547302%);fill-opacity:1;" d="M 140.410156 33.871094 L 140.410156 33.441406 C 140.117188 33.761719 139.707031 33.917969 139.28125 33.917969 C 138.847656 33.917969 138.484375 33.777344 138.234375 33.535156 C 137.910156 33.214844 137.808594 32.816406 137.808594 32.339844 L 137.808594 29.628906 L 138.660156 29.628906 L 138.660156 32.210938 C 138.660156 32.871094 139.039062 33.15625 139.515625 33.15625 C 139.992188 33.15625 140.394531 32.863281 140.394531 32.210938 L 140.394531 29.628906 L 141.246094 29.628906 L 141.246094 33.867188 L 140.410156 33.867188 "/>
<path style=" stroke:none;fill-rule:nonzero;fill:rgb(13.719177%,12.156677%,12.547302%);fill-opacity:1;" d="M 143.75 33.871094 C 142.9375 33.871094 142.585938 33.328125 142.585938 32.699219 L 142.585938 27.914062 L 143.441406 27.914062 L 143.441406 32.648438 C 143.441406 32.976562 143.558594 33.140625 143.898438 33.140625 L 144.277344 33.140625 L 144.277344 33.871094 L 143.75 33.871094 "/>
<path style=" stroke:none;fill-rule:nonzero;fill:rgb(13.719177%,12.156677%,12.547302%);fill-opacity:1;" d="M 147.558594 30.824219 C 147.414062 30.507812 147.121094 30.289062 146.71875 30.289062 C 146.308594 30.289062 146.019531 30.507812 145.875 30.824219 C 145.792969 31.007812 145.773438 31.140625 145.765625 31.402344 L 147.671875 31.402344 C 147.65625 31.140625 147.640625 31.007812 147.558594 30.824219 Z M 145.765625 31.996094 C 145.765625 32.730469 146.144531 33.183594 146.84375 33.183594 C 147.320312 33.183594 147.574219 33.050781 147.875 32.75 L 148.417969 33.257812 C 147.984375 33.695312 147.574219 33.917969 146.828125 33.917969 C 145.765625 33.917969 144.921875 33.359375 144.921875 31.746094 C 144.921875 30.363281 145.628906 29.578125 146.71875 29.578125 C 147.855469 29.578125 148.519531 30.398438 148.519531 31.636719 L 148.519531 31.996094 L 145.765625 31.996094 "/>
<path style=" stroke:none;fill-rule:nonzero;fill:rgb(13.719177%,12.156677%,12.547302%);fill-opacity:1;" d="M 151.398438 33.871094 L 151.398438 33.089844 L 154.148438 28.722656 L 151.515625 28.722656 L 151.515625 27.914062 L 155.210938 27.914062 L 155.210938 28.648438 L 152.441406 33.058594 L 155.210938 33.058594 L 155.210938 33.871094 L 151.398438 33.871094 "/>
<path style=" stroke:none;fill-rule:nonzero;fill:rgb(13.719177%,12.156677%,12.547302%);fill-opacity:1;" d="M 158.484375 28.816406 L 158.484375 27.914062 L 159.253906 27.914062 L 159.253906 28.816406 Z M 156.675781 28.816406 L 156.675781 27.914062 L 157.445312 27.914062 L 157.445312 28.816406 Z M 158.859375 33.871094 L 158.859375 33.441406 C 158.566406 33.761719 158.15625 33.917969 157.730469 33.917969 C 157.296875 33.917969 156.933594 33.777344 156.683594 33.535156 C 156.359375 33.214844 156.257812 32.816406 156.257812 32.339844 L 156.257812 29.628906 L 157.113281 29.628906 L 157.113281 32.210938 C 157.113281 32.871094 157.488281 33.15625 157.964844 33.15625 C 158.441406 33.15625 158.84375 32.863281 158.84375 32.210938 L 158.84375 29.628906 L 159.695312 29.628906 L 159.695312 33.867188 L 158.859375 33.867188 "/>
<path style=" stroke:none;fill-rule:nonzero;fill:rgb(13.719177%,12.156677%,12.547302%);fill-opacity:1;" d="M 163.394531 30.625 C 163.203125 30.429688 163.050781 30.339844 162.757812 30.339844 C 162.296875 30.339844 161.914062 30.707031 161.914062 31.292969 L 161.914062 33.871094 L 161.058594 33.871094 L 161.058594 29.628906 L 161.898438 29.628906 L 161.898438 30.085938 C 162.113281 29.785156 162.546875 29.578125 163.027344 29.578125 C 163.4375 29.578125 163.746094 29.6875 164.039062 29.976562 L 163.394531 30.621094 "/>
<path style=" stroke:none;fill-rule:nonzero;fill:rgb(13.719177%,12.156677%,12.547302%);fill-opacity:1;" d="M 164.742188 33.871094 L 164.742188 29.628906 L 165.597656 29.628906 L 165.597656 33.871094 Z M 164.71875 28.789062 L 164.71875 27.886719 L 165.621094 27.886719 L 165.621094 28.789062 L 164.71875 28.789062 "/>
<path style=" stroke:none;fill-rule:nonzero;fill:rgb(13.719177%,12.156677%,12.547302%);fill-opacity:1;" d="M 168.632812 33.917969 C 167.679688 33.917969 166.742188 33.332031 166.742188 31.746094 C 166.742188 30.15625 167.679688 29.578125 168.632812 29.578125 C 169.21875 29.578125 169.625 29.746094 170.03125 30.171875 L 169.445312 30.742188 C 169.175781 30.449219 168.96875 30.339844 168.632812 30.339844 C 168.308594 30.339844 168.03125 30.472656 167.847656 30.714844 C 167.664062 30.949219 167.59375 31.25 167.59375 31.746094 C 167.59375 32.238281 167.664062 32.546875 167.847656 32.78125 C 168.03125 33.023438 168.308594 33.15625 168.632812 33.15625 C 168.96875 33.15625 169.175781 33.046875 169.445312 32.757812 L 170.03125 33.316406 C 169.625 33.742188 169.21875 33.917969 168.632812 33.917969 "/>
<g clip-path="url(#clip2)" clip-rule="nonzero">
<path style=" stroke:none;fill-rule:nonzero;fill:rgb(13.719177%,12.156677%,12.547302%);fill-opacity:1;" d="M 173.609375 33.871094 L 173.609375 31.285156 C 173.609375 30.625 173.234375 30.339844 172.757812 30.339844 C 172.28125 30.339844 171.878906 30.632812 171.878906 31.285156 L 171.878906 33.871094 L 171.027344 33.871094 L 171.027344 27.914062 L 171.878906 27.914062 L 171.878906 30.054688 C 172.164062 29.738281 172.558594 29.578125 172.992188 29.578125 C 173.425781 29.578125 173.785156 29.722656 174.039062 29.960938 C 174.363281 30.28125 174.464844 30.683594 174.464844 31.160156 L 174.464844 33.871094 L 173.609375 33.871094 "/>
</g>
<g clip-path="url(#clip3)" clip-rule="nonzero">
<path style=" stroke:none;fill-rule:nonzero;fill:rgb(13.719177%,12.156677%,12.547302%);fill-opacity:1;" d="M 3.507812 44.746094 C 2.613281 44.746094 1.976562 44.539062 1.398438 43.960938 L 1.992188 43.367188 C 2.429688 43.800781 2.921875 43.941406 3.523438 43.941406 C 4.3125 43.941406 4.753906 43.609375 4.753906 43.023438 C 4.753906 42.753906 4.6875 42.546875 4.519531 42.402344 C 4.371094 42.269531 4.167969 42.195312 3.867188 42.152344 L 3.164062 42.054688 C 2.679688 41.976562 2.304688 41.828125 2.042969 41.574219 C 1.75 41.308594 1.601562 40.921875 1.601562 40.429688 C 1.601562 39.390625 2.355469 38.6875 3.59375 38.6875 C 4.386719 38.6875 4.929688 38.890625 5.441406 39.367188 L 4.871094 39.9375 C 4.503906 39.585938 4.070312 39.476562 3.558594 39.476562 C 2.855469 39.476562 2.480469 39.859375 2.480469 40.40625 C 2.480469 40.621094 2.539062 40.824219 2.695312 40.957031 C 2.847656 41.089844 3.023438 41.175781 3.347656 41.226562 L 4.058594 41.335938 C 4.605469 41.417969 4.902344 41.542969 5.164062 41.777344 C 5.480469 42.070312 5.648438 42.480469 5.648438 43 C 5.648438 44.09375 4.761719 44.746094 3.507812 44.746094 "/>
</g>
<path style=" stroke:none;fill-rule:nonzero;fill:rgb(13.719177%,12.156677%,12.547302%);fill-opacity:1;" d="M 10.921875 44.699219 L 10.191406 44.699219 L 9.199219 41.734375 L 8.210938 44.699219 L 7.472656 44.699219 L 6.160156 40.457031 L 7.0625 40.457031 L 7.882812 43.441406 L 8.871094 40.457031 L 9.53125 40.457031 L 10.511719 43.441406 L 11.332031 40.457031 L 12.242188 40.457031 L 10.921875 44.699219 "/>
<path style=" stroke:none;fill-rule:nonzero;fill:rgb(13.719177%,12.156677%,12.547302%);fill-opacity:1;" d="M 12.996094 44.699219 L 12.996094 40.457031 L 13.847656 40.457031 L 13.847656 44.699219 Z M 12.972656 39.617188 L 12.972656 38.714844 L 13.875 38.714844 L 13.875 39.617188 L 12.972656 39.617188 "/>
<path style=" stroke:none;fill-rule:nonzero;fill:rgb(13.719177%,12.156677%,12.547302%);fill-opacity:1;" d="M 16.585938 44.746094 C 15.890625 44.746094 15.304688 44.628906 14.804688 44.136719 L 15.363281 43.578125 C 15.707031 43.929688 16.167969 44.019531 16.585938 44.019531 C 17.113281 44.019531 17.515625 43.835938 17.515625 43.433594 C 17.515625 43.140625 17.355469 42.972656 16.945312 42.933594 L 16.269531 42.871094 C 15.464844 42.796875 15.011719 42.445312 15.011719 41.703125 C 15.011719 40.867188 15.722656 40.40625 16.609375 40.40625 C 17.253906 40.40625 17.789062 40.539062 18.183594 40.882812 L 17.648438 41.425781 C 17.378906 41.199219 17.003906 41.117188 16.601562 41.117188 C 16.082031 41.117188 15.832031 41.335938 15.832031 41.660156 C 15.832031 41.953125 16 42.105469 16.417969 42.144531 L 17.011719 42.195312 C 17.890625 42.273438 18.351562 42.65625 18.351562 43.402344 C 18.351562 44.289062 17.597656 44.746094 16.585938 44.746094 "/>
<path style=" stroke:none;fill-rule:nonzero;fill:rgb(13.719177%,12.156677%,12.547302%);fill-opacity:1;" d="M 20.726562 44.746094 C 20.03125 44.746094 19.445312 44.628906 18.945312 44.136719 L 19.503906 43.578125 C 19.847656 43.929688 20.308594 44.019531 20.726562 44.019531 C 21.253906 44.019531 21.65625 43.835938 21.65625 43.433594 C 21.65625 43.140625 21.496094 42.972656 21.085938 42.933594 L 20.410156 42.871094 C 19.605469 42.796875 19.152344 42.445312 19.152344 41.703125 C 19.152344 40.867188 19.867188 40.40625 20.75 40.40625 C 21.394531 40.40625 21.929688 40.539062 22.324219 40.882812 L 21.789062 41.425781 C 21.523438 41.199219 21.144531 41.117188 20.742188 41.117188 C 20.226562 41.117188 19.972656 41.335938 19.972656 41.660156 C 19.972656 41.953125 20.140625 42.105469 20.558594 42.144531 L 21.15625 42.195312 C 22.035156 42.273438 22.492188 42.65625 22.492188 43.402344 C 22.492188 44.289062 21.742188 44.746094 20.726562 44.746094 "/>
<path style=" stroke:none;fill-rule:nonzero;fill:rgb(13.719177%,12.156677%,12.547302%);fill-opacity:1;" d="M 26.558594 39.550781 L 26.558594 41.367188 L 29.035156 41.367188 L 29.035156 42.179688 L 26.558594 42.179688 L 26.558594 44.699219 L 25.65625 44.699219 L 25.65625 38.742188 L 29.464844 38.742188 L 29.464844 39.550781 L 26.558594 39.550781 "/>
<path style=" stroke:none;fill-rule:nonzero;fill:rgb(13.719177%,12.156677%,12.547302%);fill-opacity:1;" d="M 32.625 41.652344 C 32.484375 41.335938 32.191406 41.117188 31.789062 41.117188 C 31.378906 41.117188 31.085938 41.335938 30.941406 41.652344 C 30.859375 41.835938 30.84375 41.96875 30.832031 42.230469 L 32.742188 42.230469 C 32.726562 41.96875 32.707031 41.835938 32.625 41.652344 Z M 30.835938 42.824219 C 30.835938 43.558594 31.210938 44.011719 31.914062 44.011719 C 32.390625 44.011719 32.640625 43.878906 32.941406 43.578125 L 33.488281 44.085938 C 33.050781 44.523438 32.640625 44.746094 31.898438 44.746094 C 30.832031 44.746094 29.988281 44.1875 29.988281 42.574219 C 29.988281 41.191406 30.699219 40.40625 31.789062 40.40625 C 32.925781 40.40625 33.585938 41.226562 33.585938 42.464844 L 33.585938 42.824219 L 30.835938 42.824219 "/>
<path style=" stroke:none;fill-rule:nonzero;fill:rgb(13.719177%,12.156677%,12.547302%);fill-opacity:1;" d="M 36.265625 41.167969 C 35.488281 41.167969 35.378906 41.820312 35.378906 42.574219 C 35.378906 43.324219 35.488281 43.984375 36.265625 43.984375 C 37.035156 43.984375 37.144531 43.324219 37.144531 42.574219 C 37.144531 41.820312 37.035156 41.167969 36.265625 41.167969 Z M 37.160156 44.699219 L 37.160156 44.246094 C 36.84375 44.632812 36.5 44.746094 36.039062 44.746094 C 35.613281 44.746094 35.234375 44.605469 35 44.371094 C 34.589844 43.953125 34.523438 43.277344 34.523438 42.574219 C 34.523438 41.878906 34.59375 41.203125 35 40.78125 C 35.234375 40.550781 35.605469 40.40625 36.03125 40.40625 C 36.480469 40.40625 36.832031 40.515625 37.140625 40.882812 L 37.140625 38.742188 L 37.996094 38.742188 L 37.996094 44.699219 L 37.160156 44.699219 "/>
<path style=" stroke:none;fill-rule:nonzero;fill:rgb(13.719177%,12.156677%,12.547302%);fill-opacity:1;" d="M 41.777344 41.652344 C 41.636719 41.335938 41.34375 41.117188 40.941406 41.117188 C 40.53125 41.117188 40.238281 41.335938 40.097656 41.652344 C 40.011719 41.835938 39.996094 41.96875 39.988281 42.230469 L 41.894531 42.230469 C 41.878906 41.96875 41.863281 41.835938 41.777344 41.652344 Z M 39.988281 42.824219 C 39.988281 43.558594 40.367188 44.011719 41.066406 44.011719 C 41.542969 44.011719 41.796875 43.878906 42.097656 43.578125 L 42.640625 44.085938 C 42.203125 44.523438 41.792969 44.746094 41.050781 44.746094 C 39.988281 44.746094 39.144531 44.1875 39.144531 42.574219 C 39.144531 41.191406 39.855469 40.40625 40.941406 40.40625 C 42.078125 40.40625 42.742188 41.226562 42.742188 42.464844 L 42.742188 42.824219 L 39.988281 42.824219 "/>
<path style=" stroke:none;fill-rule:nonzero;fill:rgb(13.719177%,12.156677%,12.547302%);fill-opacity:1;" d="M 46.214844 41.453125 C 46.019531 41.257812 45.871094 41.167969 45.578125 41.167969 C 45.117188 41.167969 44.730469 41.535156 44.730469 42.121094 L 44.730469 44.699219 L 43.878906 44.699219 L 43.878906 40.457031 L 44.714844 40.457031 L 44.714844 40.914062 C 44.933594 40.613281 45.367188 40.40625 45.84375 40.40625 C 46.253906 40.40625 46.5625 40.515625 46.855469 40.804688 L 46.210938 41.449219 "/>
<path style=" stroke:none;fill-rule:nonzero;fill:rgb(13.719177%,12.156677%,12.547302%);fill-opacity:1;" d="M 49.746094 42.824219 L 48.765625 42.824219 C 48.246094 42.824219 47.988281 43.042969 47.988281 43.433594 C 47.988281 43.828125 48.230469 44.039062 48.789062 44.039062 C 49.089844 44.039062 49.335938 44.003906 49.5625 43.796875 C 49.695312 43.671875 49.746094 43.46875 49.746094 43.167969 Z M 49.761719 44.699219 L 49.761719 44.3125 C 49.449219 44.621094 49.160156 44.746094 48.632812 44.746094 C 48.105469 44.746094 47.753906 44.621094 47.492188 44.363281 C 47.277344 44.136719 47.160156 43.8125 47.160156 43.449219 C 47.160156 42.738281 47.652344 42.230469 48.632812 42.230469 L 49.742188 42.230469 L 49.742188 41.929688 C 49.742188 41.382812 49.484375 41.132812 48.816406 41.132812 C 48.363281 41.132812 48.128906 41.25 47.886719 41.550781 L 47.335938 41.023438 C 47.726562 40.554688 48.136719 40.40625 48.847656 40.40625 C 50.019531 40.40625 50.597656 40.90625 50.597656 41.863281 L 50.597656 44.699219 L 49.761719 44.699219 "/>
<path style=" stroke:none;fill-rule:nonzero;fill:rgb(13.719177%,12.156677%,12.547302%);fill-opacity:1;" d="M 53.058594 44.699219 C 52.246094 44.699219 51.894531 44.15625 51.894531 43.527344 L 51.894531 38.742188 L 52.75 38.742188 L 52.75 43.476562 C 52.75 43.804688 52.867188 43.96875 53.207031 43.96875 L 53.585938 43.96875 L 53.585938 44.699219 L 53.058594 44.699219 "/>
<path style=" stroke:none;fill-rule:nonzero;fill:rgb(13.719177%,12.156677%,12.547302%);fill-opacity:1;" d="M 56.648438 44.699219 L 57.550781 44.699219 L 57.550781 38.742188 L 56.648438 38.742188 Z M 56.648438 44.699219 "/>
<path style=" stroke:none;fill-rule:nonzero;fill:rgb(13.719177%,12.156677%,12.547302%);fill-opacity:1;" d="M 61.601562 44.699219 L 61.601562 42.113281 C 61.601562 41.453125 61.222656 41.167969 60.746094 41.167969 C 60.269531 41.167969 59.867188 41.460938 59.867188 42.113281 L 59.867188 44.699219 L 59.015625 44.699219 L 59.015625 40.457031 L 59.851562 40.457031 L 59.851562 40.882812 C 60.144531 40.566406 60.554688 40.40625 60.980469 40.40625 C 61.417969 40.40625 61.777344 40.550781 62.027344 40.789062 C 62.355469 41.109375 62.453125 41.511719 62.453125 41.988281 L 62.453125 44.699219 L 61.601562 44.699219 "/>
<path style=" stroke:none;fill-rule:nonzero;fill:rgb(13.719177%,12.156677%,12.547302%);fill-opacity:1;" d="M 65.148438 44.746094 C 64.453125 44.746094 63.867188 44.628906 63.367188 44.136719 L 63.925781 43.578125 C 64.269531 43.929688 64.730469 44.019531 65.148438 44.019531 C 65.675781 44.019531 66.074219 43.835938 66.074219 43.433594 C 66.074219 43.140625 65.917969 42.972656 65.507812 42.933594 L 64.828125 42.871094 C 64.027344 42.796875 63.574219 42.445312 63.574219 41.703125 C 63.574219 40.867188 64.285156 40.40625 65.171875 40.40625 C 65.816406 40.40625 66.351562 40.539062 66.746094 40.882812 L 66.210938 41.425781 C 65.941406 41.199219 65.566406 41.117188 65.164062 41.117188 C 64.644531 41.117188 64.394531 41.335938 64.394531 41.660156 C 64.394531 41.953125 64.5625 42.105469 64.980469 42.144531 L 65.574219 42.195312 C 66.453125 42.273438 66.914062 42.65625 66.914062 43.402344 C 66.914062 44.289062 66.160156 44.746094 65.148438 44.746094 "/>
<path style=" stroke:none;fill-rule:nonzero;fill:rgb(13.719177%,12.156677%,12.547302%);fill-opacity:1;" d="M 69.136719 44.699219 C 68.34375 44.699219 67.976562 44.128906 67.976562 43.519531 L 67.976562 41.109375 L 67.492188 41.109375 L 67.492188 40.457031 L 67.976562 40.457031 L 67.976562 39.242188 L 68.828125 39.242188 L 68.828125 40.457031 L 69.648438 40.457031 L 69.648438 41.109375 L 68.828125 41.109375 L 68.828125 43.476562 C 68.828125 43.785156 68.980469 43.96875 69.296875 43.96875 L 69.648438 43.96875 L 69.648438 44.699219 L 69.136719 44.699219 "/>
<path style=" stroke:none;fill-rule:nonzero;fill:rgb(13.719177%,12.156677%,12.547302%);fill-opacity:1;" d="M 70.746094 44.699219 L 70.746094 40.457031 L 71.597656 40.457031 L 71.597656 44.699219 Z M 70.71875 39.617188 L 70.71875 38.714844 L 71.625 38.714844 L 71.625 39.617188 L 70.71875 39.617188 "/>
<path style=" stroke:none;fill-rule:nonzero;fill:rgb(13.719177%,12.156677%,12.547302%);fill-opacity:1;" d="M 74.226562 44.699219 C 73.433594 44.699219 73.0625 44.128906 73.0625 43.519531 L 73.0625 41.109375 L 72.578125 41.109375 L 72.578125 40.457031 L 73.0625 40.457031 L 73.0625 39.242188 L 73.917969 39.242188 L 73.917969 40.457031 L 74.738281 40.457031 L 74.738281 41.109375 L 73.917969 41.109375 L 73.917969 43.476562 C 73.917969 43.785156 74.070312 43.96875 74.386719 43.96875 L 74.738281 43.96875 L 74.738281 44.699219 L 74.226562 44.699219 "/>
<path style=" stroke:none;fill-rule:nonzero;fill:rgb(13.719177%,12.156677%,12.547302%);fill-opacity:1;" d="M 78.394531 44.699219 L 78.394531 44.269531 C 78.097656 44.589844 77.691406 44.746094 77.261719 44.746094 C 76.828125 44.746094 76.46875 44.605469 76.21875 44.363281 C 75.890625 44.042969 75.789062 43.644531 75.789062 43.167969 L 75.789062 40.457031 L 76.644531 40.457031 L 76.644531 43.039062 C 76.644531 43.699219 77.019531 43.984375 77.496094 43.984375 C 77.972656 43.984375 78.375 43.691406 78.375 43.039062 L 78.375 40.457031 L 79.226562 40.457031 L 79.226562 44.695312 L 78.390625 44.695312 "/>
<path style=" stroke:none;fill-rule:nonzero;fill:rgb(13.719177%,12.156677%,12.547302%);fill-opacity:1;" d="M 81.859375 44.699219 C 81.0625 44.699219 80.695312 44.128906 80.695312 43.519531 L 80.695312 41.109375 L 80.210938 41.109375 L 80.210938 40.457031 L 80.695312 40.457031 L 80.695312 39.242188 L 81.546875 39.242188 L 81.546875 40.457031 L 82.367188 40.457031 L 82.367188 41.109375 L 81.546875 41.109375 L 81.546875 43.476562 C 81.546875 43.785156 81.699219 43.96875 82.015625 43.96875 L 82.367188 43.96875 L 82.367188 44.699219 L 81.859375 44.699219 "/>
<path style=" stroke:none;fill-rule:nonzero;fill:rgb(13.719177%,12.156677%,12.547302%);fill-opacity:1;" d="M 85.839844 41.652344 C 85.695312 41.335938 85.40625 41.117188 85.003906 41.117188 C 84.59375 41.117188 84.300781 41.335938 84.15625 41.652344 C 84.074219 41.835938 84.058594 41.96875 84.046875 42.230469 L 85.957031 42.230469 C 85.9375 41.96875 85.921875 41.835938 85.839844 41.652344 Z M 84.050781 42.824219 C 84.050781 43.558594 84.425781 44.011719 85.128906 44.011719 C 85.605469 44.011719 85.855469 43.878906 86.15625 43.578125 L 86.699219 44.085938 C 86.265625 44.523438 85.855469 44.746094 85.109375 44.746094 C 84.046875 44.746094 83.203125 44.1875 83.203125 42.574219 C 83.203125 41.191406 83.914062 40.40625 85.003906 40.40625 C 86.140625 40.40625 86.800781 41.226562 86.800781 42.464844 L 86.800781 42.824219 L 84.050781 42.824219 "/>
<path style=" stroke:none;fill-rule:nonzero;fill:rgb(13.719177%,12.156677%,12.547302%);fill-opacity:1;" d="M 92.148438 41.410156 C 91.988281 41.25 91.773438 41.167969 91.519531 41.167969 C 91.269531 41.167969 91.0625 41.25 90.902344 41.410156 C 90.640625 41.667969 90.609375 42.113281 90.609375 42.574219 C 90.609375 43.03125 90.644531 43.476562 90.902344 43.734375 C 91.0625 43.894531 91.269531 43.984375 91.519531 43.984375 C 91.773438 43.984375 91.988281 43.894531 92.148438 43.734375 C 92.40625 43.476562 92.441406 43.03125 92.441406 42.574219 C 92.441406 42.113281 92.40625 41.667969 92.148438 41.410156 Z M 92.792969 44.246094 C 92.515625 44.53125 92.097656 44.746094 91.519531 44.746094 C 90.945312 44.746094 90.535156 44.53125 90.257812 44.246094 C 89.855469 43.828125 89.757812 43.292969 89.757812 42.574219 C 89.757812 41.859375 89.855469 41.324219 90.257812 40.90625 C 90.535156 40.625 90.945312 40.40625 91.519531 40.40625 C 92.097656 40.40625 92.515625 40.625 92.792969 40.90625 C 93.195312 41.328125 93.296875 41.863281 93.296875 42.574219 C 93.296875 43.292969 93.195312 43.828125 92.792969 44.246094 "/>
<path style=" stroke:none;fill-rule:nonzero;fill:rgb(13.719177%,12.156677%,12.547302%);fill-opacity:1;" d="M 95.445312 41.109375 L 95.445312 44.699219 L 94.589844 44.699219 L 94.589844 41.109375 L 94.105469 41.109375 L 94.105469 40.457031 L 94.589844 40.457031 L 94.589844 39.878906 C 94.589844 39.269531 94.960938 38.699219 95.753906 38.699219 L 96.289062 38.699219 L 96.289062 39.425781 L 95.914062 39.425781 C 95.597656 39.425781 95.445312 39.609375 95.445312 39.921875 L 95.445312 40.457031 L 96.292969 40.457031 L 96.292969 41.109375 L 95.445312 41.109375 "/>
<path style=" stroke:none;fill-rule:nonzero;fill:rgb(13.719177%,12.156677%,12.547302%);fill-opacity:1;" d="M 101.34375 39.550781 L 101.34375 44.699219 L 100.441406 44.699219 L 100.441406 39.550781 L 98.800781 39.550781 L 98.800781 38.742188 L 102.984375 38.742188 L 102.984375 39.550781 L 101.34375 39.550781 "/>
<path style=" stroke:none;fill-rule:nonzero;fill:rgb(13.719177%,12.156677%,12.547302%);fill-opacity:1;" d="M 105.671875 41.652344 C 105.527344 41.335938 105.234375 41.117188 104.835938 41.117188 C 104.425781 41.117188 104.132812 41.335938 103.988281 41.652344 C 103.902344 41.835938 103.886719 41.96875 103.878906 42.230469 L 105.789062 42.230469 C 105.769531 41.96875 105.753906 41.835938 105.671875 41.652344 Z M 103.878906 42.824219 C 103.878906 43.558594 104.253906 44.011719 104.960938 44.011719 C 105.4375 44.011719 105.6875 43.878906 105.988281 43.578125 L 106.53125 44.085938 C 106.097656 44.523438 105.6875 44.746094 104.941406 44.746094 C 103.878906 44.746094 103.035156 44.1875 103.035156 42.574219 C 103.035156 41.191406 103.746094 40.40625 104.835938 40.40625 C 105.972656 40.40625 106.632812 41.226562 106.632812 42.464844 L 106.632812 42.824219 L 103.878906 42.824219 "/>
<path style=" stroke:none;fill-rule:nonzero;fill:rgb(13.719177%,12.156677%,12.547302%);fill-opacity:1;" d="M 109.445312 44.746094 C 108.492188 44.746094 107.554688 44.160156 107.554688 42.574219 C 107.554688 40.984375 108.492188 40.40625 109.445312 40.40625 C 110.03125 40.40625 110.4375 40.574219 110.839844 41 L 110.253906 41.570312 C 109.988281 41.277344 109.777344 41.167969 109.445312 41.167969 C 109.117188 41.167969 108.839844 41.300781 108.65625 41.542969 C 108.472656 41.777344 108.40625 42.078125 108.40625 42.574219 C 108.40625 43.066406 108.472656 43.375 108.65625 43.609375 C 108.839844 43.851562 109.117188 43.984375 109.445312 43.984375 C 109.777344 43.984375 109.988281 43.878906 110.253906 43.585938 L 110.839844 44.144531 C 110.4375 44.570312 110.03125 44.746094 109.445312 44.746094 "/>
<path style=" stroke:none;fill-rule:nonzero;fill:rgb(13.719177%,12.156677%,12.547302%);fill-opacity:1;" d="M 114.421875 44.699219 L 114.421875 42.113281 C 114.421875 41.453125 114.046875 41.167969 113.570312 41.167969 C 113.09375 41.167969 112.691406 41.460938 112.691406 42.113281 L 112.691406 44.699219 L 111.835938 44.699219 L 111.835938 38.742188 L 112.691406 38.742188 L 112.691406 40.882812 C 112.972656 40.566406 113.367188 40.40625 113.804688 40.40625 C 114.238281 40.40625 114.597656 40.550781 114.847656 40.789062 C 115.175781 41.109375 115.277344 41.511719 115.277344 41.988281 L 115.277344 44.699219 L 114.421875 44.699219 "/>
<path style=" stroke:none;fill-rule:nonzero;fill:rgb(13.719177%,12.156677%,12.547302%);fill-opacity:1;" d="M 119.183594 44.699219 L 119.183594 42.113281 C 119.183594 41.453125 118.804688 41.167969 118.332031 41.167969 C 117.851562 41.167969 117.449219 41.460938 117.449219 42.113281 L 117.449219 44.699219 L 116.597656 44.699219 L 116.597656 40.457031 L 117.433594 40.457031 L 117.433594 40.882812 C 117.726562 40.566406 118.136719 40.40625 118.566406 40.40625 C 119 40.40625 119.359375 40.550781 119.609375 40.789062 C 119.9375 41.109375 120.035156 41.511719 120.035156 41.988281 L 120.035156 44.699219 L 119.183594 44.699219 "/>
<path style=" stroke:none;fill-rule:nonzero;fill:rgb(13.719177%,12.156677%,12.547302%);fill-opacity:1;" d="M 123.550781 41.410156 C 123.390625 41.25 123.171875 41.167969 122.921875 41.167969 C 122.671875 41.167969 122.460938 41.25 122.304688 41.410156 C 122.046875 41.667969 122.011719 42.113281 122.011719 42.574219 C 122.011719 43.03125 122.046875 43.476562 122.304688 43.734375 C 122.460938 43.894531 122.671875 43.984375 122.921875 43.984375 C 123.171875 43.984375 123.390625 43.894531 123.550781 43.734375 C 123.808594 43.476562 123.84375 43.03125 123.84375 42.574219 C 123.84375 42.113281 123.808594 41.667969 123.550781 41.410156 Z M 124.195312 44.246094 C 123.917969 44.53125 123.5 44.746094 122.921875 44.746094 C 122.34375 44.746094 121.933594 44.53125 121.660156 44.246094 C 121.257812 43.828125 121.15625 43.292969 121.15625 42.574219 C 121.15625 41.859375 121.257812 41.324219 121.660156 40.90625 C 121.933594 40.625 122.34375 40.40625 122.921875 40.40625 C 123.5 40.40625 123.917969 40.625 124.195312 40.90625 C 124.597656 41.328125 124.695312 41.863281 124.695312 42.574219 C 124.695312 43.292969 124.597656 43.828125 124.195312 44.246094 "/>
<path style=" stroke:none;fill-rule:nonzero;fill:rgb(13.719177%,12.156677%,12.547302%);fill-opacity:1;" d="M 127 44.699219 C 126.1875 44.699219 125.835938 44.15625 125.835938 43.527344 L 125.835938 38.742188 L 126.6875 38.742188 L 126.6875 43.476562 C 126.6875 43.804688 126.804688 43.96875 127.148438 43.96875 L 127.523438 43.96875 L 127.523438 44.699219 L 127 44.699219 "/>
<path style=" stroke:none;fill-rule:nonzero;fill:rgb(13.719177%,12.156677%,12.547302%);fill-opacity:1;" d="M 130.578125 41.410156 C 130.421875 41.25 130.203125 41.167969 129.953125 41.167969 C 129.699219 41.167969 129.492188 41.25 129.332031 41.410156 C 129.074219 41.667969 129.039062 42.113281 129.039062 42.574219 C 129.039062 43.03125 129.074219 43.476562 129.332031 43.734375 C 129.492188 43.894531 129.699219 43.984375 129.953125 43.984375 C 130.203125 43.984375 130.421875 43.894531 130.578125 43.734375 C 130.839844 43.476562 130.871094 43.03125 130.871094 42.574219 C 130.871094 42.113281 130.839844 41.667969 130.578125 41.410156 Z M 131.222656 44.246094 C 130.945312 44.53125 130.53125 44.746094 129.953125 44.746094 C 129.375 44.746094 128.964844 44.53125 128.6875 44.246094 C 128.289062 43.828125 128.1875 43.292969 128.1875 42.574219 C 128.1875 41.859375 128.289062 41.324219 128.6875 40.90625 C 128.964844 40.625 129.375 40.40625 129.953125 40.40625 C 130.53125 40.40625 130.945312 40.625 131.222656 40.90625 C 131.625 41.328125 131.726562 41.863281 131.726562 42.574219 C 131.726562 43.292969 131.625 43.828125 131.222656 44.246094 "/>
<g clip-path="url(#clip4)" clip-rule="nonzero">
<path style=" stroke:none;fill-rule:nonzero;fill:rgb(13.719177%,12.156677%,12.547302%);fill-opacity:1;" d="M 134.410156 41.167969 C 133.640625 41.167969 133.539062 41.828125 133.539062 42.496094 C 133.539062 43.167969 133.640625 43.828125 134.410156 43.828125 C 135.179688 43.828125 135.273438 43.167969 135.273438 42.496094 C 135.273438 41.828125 135.179688 41.167969 134.410156 41.167969 Z M 134.308594 46.460938 C 133.664062 46.460938 133.257812 46.3125 132.8125 45.902344 L 133.355469 45.359375 C 133.625 45.609375 133.859375 45.734375 134.277344 45.734375 C 134.996094 45.734375 135.273438 45.226562 135.273438 44.65625 L 135.273438 44.113281 C 134.964844 44.480469 134.613281 44.597656 134.175781 44.597656 C 133.75 44.597656 133.398438 44.453125 133.164062 44.222656 C 132.753906 43.8125 132.6875 43.21875 132.6875 42.496094 C 132.6875 41.777344 132.753906 41.183594 133.164062 40.773438 C 133.398438 40.539062 133.757812 40.40625 134.183594 40.40625 C 134.636719 40.40625 134.980469 40.523438 135.296875 40.910156 L 135.296875 40.457031 L 136.125 40.457031 L 136.125 44.675781 C 136.125 45.710938 135.441406 46.464844 134.308594 46.464844 "/>
</g>
<g clip-path="url(#clip5)" clip-rule="nonzero">
<path style=" stroke:none;fill-rule:nonzero;fill:rgb(13.719177%,12.156677%,12.547302%);fill-opacity:1;" d="M 138.820312 45.542969 C 138.738281 45.777344 138.636719 45.945312 138.511719 46.070312 C 138.277344 46.304688 137.964844 46.378906 137.640625 46.378906 L 137.296875 46.378906 L 137.296875 45.609375 L 137.515625 45.609375 C 137.875 45.609375 138 45.5 138.125 45.15625 L 138.359375 44.496094 L 136.878906 40.457031 L 137.78125 40.457031 L 138.796875 43.441406 L 139.78125 40.457031 L 140.691406 40.457031 L 138.820312 45.542969 "/>
</g>
<path style=" stroke:none;fill-rule:nonzero;fill:rgb(13.719177%,12.156677%,12.547302%);fill-opacity:1;" d="M 143.152344 44.699219 L 143.152344 43.917969 L 145.90625 39.550781 L 143.269531 39.550781 L 143.269531 38.742188 L 146.96875 38.742188 L 146.96875 39.476562 L 144.199219 43.886719 L 146.96875 43.886719 L 146.96875 44.699219 L 143.152344 44.699219 "/>
<path style=" stroke:none;fill-rule:nonzero;fill:rgb(13.719177%,12.156677%,12.547302%);fill-opacity:1;" d="M 150.617188 44.699219 L 150.617188 44.269531 C 150.324219 44.589844 149.914062 44.746094 149.488281 44.746094 C 149.050781 44.746094 148.691406 44.605469 148.441406 44.363281 C 148.117188 44.042969 148.015625 43.644531 148.015625 43.167969 L 148.015625 40.457031 L 148.867188 40.457031 L 148.867188 43.039062 C 148.867188 43.699219 149.246094 43.984375 149.722656 43.984375 C 150.199219 43.984375 150.601562 43.691406 150.601562 43.039062 L 150.601562 40.457031 L 151.453125 40.457031 L 151.453125 44.695312 L 150.617188 44.695312 "/>
<path style=" stroke:none;fill-rule:nonzero;fill:rgb(13.719177%,12.156677%,12.547302%);fill-opacity:1;" d="M 155.152344 41.453125 C 154.960938 41.257812 154.808594 41.167969 154.515625 41.167969 C 154.054688 41.167969 153.671875 41.535156 153.671875 42.121094 L 153.671875 44.699219 L 152.816406 44.699219 L 152.816406 40.457031 L 153.652344 40.457031 L 153.652344 40.914062 C 153.871094 40.613281 154.308594 40.40625 154.785156 40.40625 C 155.195312 40.40625 155.503906 40.515625 155.796875 40.804688 L 155.152344 41.449219 "/>
<path style=" stroke:none;fill-rule:nonzero;fill:rgb(13.719177%,12.156677%,12.547302%);fill-opacity:1;" d="M 156.5 44.699219 L 156.5 40.457031 L 157.355469 40.457031 L 157.355469 44.699219 Z M 156.476562 39.617188 L 156.476562 38.714844 L 157.378906 38.714844 L 157.378906 39.617188 L 156.476562 39.617188 "/>
<path style=" stroke:none;fill-rule:nonzero;fill:rgb(13.719177%,12.156677%,12.547302%);fill-opacity:1;" d="M 160.390625 44.746094 C 159.4375 44.746094 158.5 44.160156 158.5 42.574219 C 158.5 40.984375 159.4375 40.40625 160.390625 40.40625 C 160.976562 40.40625 161.382812 40.574219 161.789062 41 L 161.203125 41.570312 C 160.933594 41.277344 160.722656 41.167969 160.390625 41.167969 C 160.0625 41.167969 159.789062 41.300781 159.601562 41.542969 C 159.417969 41.777344 159.351562 42.078125 159.351562 42.574219 C 159.351562 43.066406 159.417969 43.375 159.601562 43.609375 C 159.789062 43.851562 160.0625 43.984375 160.390625 43.984375 C 160.722656 43.984375 160.933594 43.878906 161.203125 43.585938 L 161.789062 44.144531 C 161.382812 44.570312 160.976562 44.746094 160.390625 44.746094 "/>
<path style=" stroke:none;fill-rule:nonzero;fill:rgb(13.719177%,12.156677%,12.547302%);fill-opacity:1;" d="M 165.367188 44.699219 L 165.367188 42.113281 C 165.367188 41.453125 164.992188 41.167969 164.515625 41.167969 C 164.039062 41.167969 163.636719 41.460938 163.636719 42.113281 L 163.636719 44.699219 L 162.78125 44.699219 L 162.78125 38.742188 L 163.636719 38.742188 L 163.636719 40.882812 C 163.921875 40.566406 164.3125 40.40625 164.75 40.40625 C 165.183594 40.40625 165.542969 40.550781 165.792969 40.789062 C 166.121094 41.109375 166.222656 41.511719 166.222656 41.988281 L 166.222656 44.699219 L 165.367188 44.699219 "/>
<g clip-path="url(#clip6)" clip-rule="nonzero">
<path style=" stroke:none;fill-rule:nonzero;fill:rgb(13.719177%,12.156677%,12.547302%);fill-opacity:1;" d="M 45.648438 7.617188 L 41.253906 7.617188 L 42.796875 0.0507812 L 5.449219 0.0507812 L 1.523438 19.582031 L 16.417969 19.582031 L 17.390625 14.699219 L 8.597656 14.699219 L 9.132812 12.011719 L 17.921875 12.011719 L 18.808594 7.617188 L 10.015625 7.617188 L 10.546875 4.929688 L 24.484375 4.929688 L 21.542969 19.582031 L 27.644531 19.582031 L 30.585938 4.929688 L 35.714844 4.929688 L 32.769531 19.582031 L 38.875 19.582031 L 40.382812 12.011719 L 44.777344 12.011719 L 43.269531 19.582031 L 49.375 19.582031 L 53.296875 0.0507812 L 47.195312 0.0507812 L 45.648438 7.617188 "/>
</g>
</g>
</svg>
