<?xml version="1.0" encoding="UTF-8"?>
<svg xmlns="http://www.w3.org/2000/svg" xmlns:xlink="http://www.w3.org/1999/xlink" width="229.52pt" height="190.73pt" viewBox="0 0 229.52 190.73" version="1.2">
<defs>
<clipPath id="clip1">
  <path d="M 100 0.0625 L 158 0.0625 L 158 46 L 100 46 Z M 100 0.0625 "/>
</clipPath>
<clipPath id="clip2">
  <path d="M 221 163 L 229.039062 163 L 229.039062 175 L 221 175 Z M 221 163 "/>
</clipPath>
</defs>
<g id="surface1">
<path style=" stroke:none;fill-rule:nonzero;fill:rgb(59.568787%,10.594177%,11.767578%);fill-opacity:1;" d="M 5.589844 7.726562 L 221.210938 14.113281 L 228.59375 125.449219 L 5.589844 147.300781 L 5.589844 7.726562 "/>
<g clip-path="url(#clip1)" clip-rule="nonzero">
<path style=" stroke:none;fill-rule:nonzero;fill:rgb(100%,100%,100%);fill-opacity:1;" d="M 100.007812 5.953125 L 152.984375 -0.792969 L 157.800781 38.703125 L 104.824219 45.445312 L 100.007812 5.953125 "/>
</g>
<path style=" stroke:none;fill-rule:nonzero;fill:rgb(100%,100%,100%);fill-opacity:1;" d="M 48.953125 57.96875 L 101.933594 51.226562 L 106.746094 90.71875 L 53.769531 97.464844 L 48.953125 57.96875 "/>
<path style=" stroke:none;fill-rule:nonzero;fill:rgb(100%,100%,100%);fill-opacity:1;" d="M 162.617188 43.519531 L 215.597656 36.777344 L 220.414062 76.269531 L 167.433594 83.015625 L 162.617188 43.519531 "/>
<path style=" stroke:none;fill-rule:nonzero;fill:rgb(100%,100%,100%);fill-opacity:1;" d="M 105.785156 50.261719 L 158.765625 43.519531 L 163.582031 83.015625 L 110.601562 89.753906 L 105.785156 50.261719 "/>
<path style=" stroke:none;fill-rule:nonzero;fill:rgb(100%,100%,100%);fill-opacity:1;" d="M 111.566406 93.609375 L 164.542969 86.867188 L 169.363281 126.359375 L 116.378906 133.105469 L 111.566406 93.609375 "/>
<path style="fill:none;stroke-width:26.2783;stroke-linecap:round;stroke-linejoin:round;stroke:rgb(96.484375%,96.484375%,96.484375%);stroke-opacity:1;stroke-miterlimit:10;" d="M 1417.21548 805.800512 L 1311.05643 1635.931397 " transform="matrix(0.0997913,0,0,-0.0997913,0,190.396259)"/>
<path style="fill:none;stroke-width:26.2783;stroke-linecap:round;stroke-linejoin:round;stroke:rgb(96.484375%,96.484375%,96.484375%);stroke-opacity:1;stroke-miterlimit:10;" d="M 1899.86337 1298.077873 L 828.40854 1162.952122 " transform="matrix(0.0997913,0,0,-0.0997913,0,190.396259)"/>
<path style=" stroke:none;fill-rule:nonzero;fill:rgb(0%,0%,0%);fill-opacity:1;" d="M 16.898438 152.445312 C 15.84375 152.21875 14.957031 152.152344 13.960938 152.152344 C 9.308594 152.152344 6.871094 155.363281 6.871094 159.15625 C 6.871094 164.378906 12.382812 164.410156 12.382812 167.914062 C 12.382812 170.152344 10.914062 171.609375 8.253906 171.609375 C 7.285156 171.609375 6.175781 171.316406 5.375 170.929688 L 4.820312 174.269531 C 5.734375 174.59375 6.953125 174.691406 8.03125 174.691406 C 12.464844 174.691406 15.59375 171.480469 15.59375 167.328125 C 15.59375 162.109375 10.027344 162.011719 10.027344 158.347656 C 10.027344 156.726562 11.136719 155.070312 13.765625 155.070312 C 14.488281 155.070312 15.457031 155.234375 16.371094 155.589844 L 16.898438 152.445312 "/>
<path style=" stroke:none;fill-rule:nonzero;fill:rgb(0%,0%,0%);fill-opacity:1;" d="M 31.578125 158.507812 L 28.78125 157.601562 C 26.757812 163.40625 24.988281 167.847656 22.964844 172.097656 L 22.9375 172.097656 C 23.019531 171.546875 23.101562 170.898438 23.101562 170.410156 C 23.101562 166.972656 22.464844 162.140625 21.609375 158.25 L 18.367188 158.25 C 19.585938 163.503906 20.417969 168.820312 20.417969 173.230469 C 20.417969 175.402344 19.972656 176.765625 19.003906 177.933594 C 18.144531 178.972656 17.09375 179.554688 16.148438 179.554688 C 15.570312 179.554688 14.988281 179.457031 14.460938 179.230469 L 13.960938 182.277344 C 14.515625 182.441406 15.265625 182.539062 15.957031 182.539062 C 17.644531 182.539062 19.390625 181.566406 21.109375 179.585938 C 24.488281 175.664062 27.785156 168.855469 31.578125 158.507812 "/>
<path style=" stroke:none;fill-rule:nonzero;fill:rgb(0%,0%,0%);fill-opacity:1;" d="M 40.667969 158.183594 C 39.972656 158.023438 39.226562 157.925781 38.3125 157.925781 C 34.574219 157.925781 32.660156 160.164062 32.660156 162.984375 C 32.660156 166.84375 36.539062 167.296875 36.539062 169.664062 C 36.539062 171.125 35.460938 171.871094 33.824219 171.871094 C 33.078125 171.871094 32.328125 171.707031 31.636719 171.449219 L 31.136719 174.429688 C 31.832031 174.59375 32.578125 174.691406 33.492188 174.691406 C 37.5625 174.691406 39.585938 172 39.585938 169.308594 C 39.585938 165.742188 35.679688 164.929688 35.679688 162.628906 C 35.679688 161.394531 36.511719 160.550781 38.144531 160.550781 C 38.8125 160.550781 39.503906 160.648438 40.113281 160.910156 L 40.667969 158.183594 "/>
<path style=" stroke:none;fill-rule:nonzero;fill:rgb(0%,0%,0%);fill-opacity:1;" d="M 51.800781 158.25 L 48.253906 158.25 L 49.222656 152.378906 L 46.203125 153.125 L 45.375 158.25 L 42.796875 158.25 L 42.328125 160.941406 L 44.929688 160.941406 L 43.574219 169.308594 C 42.9375 173.070312 43.738281 174.660156 46.621094 174.660156 C 47.421875 174.660156 48.449219 174.527344 49.308594 174.300781 L 49.527344 171.480469 C 49.003906 171.609375 48.449219 171.707031 47.699219 171.707031 C 46.453125 171.707031 46.203125 171.089844 46.535156 168.855469 L 47.8125 160.941406 L 51.328125 160.941406 L 51.800781 158.25 "/>
<path style=" stroke:none;fill-rule:nonzero;fill:rgb(0%,0%,0%);fill-opacity:1;" d="M 64.246094 161.71875 C 64.246094 159.804688 63.164062 157.925781 60.003906 157.925781 C 55.574219 157.925781 52.359375 162.886719 52.359375 169.339844 C 52.359375 172.972656 53.800781 174.691406 57.125 174.691406 C 58.925781 174.691406 60.617188 174.300781 62.027344 173.683594 L 62.027344 170.960938 C 60.808594 171.546875 59.394531 171.902344 58.09375 171.902344 C 56.015625 171.902344 55.324219 171.316406 55.324219 169.113281 C 55.324219 168.625 55.378906 167.914062 55.433594 167.492188 C 61.113281 167.265625 64.246094 165.351562 64.246094 161.71875 M 61.335938 162.171875 C 61.335938 164.023438 59.5625 164.929688 55.796875 165.09375 C 56.347656 162.628906 57.679688 160.519531 59.671875 160.519531 C 60.699219 160.519531 61.335938 161.101562 61.335938 162.171875 "/>
<path style=" stroke:none;fill-rule:nonzero;fill:rgb(0%,0%,0%);fill-opacity:1;" d="M 86.886719 163.339844 C 87.414062 160.066406 86.554688 157.894531 84.035156 157.894531 C 81.292969 157.894531 79.269531 160.84375 77.996094 164.085938 L 77.941406 164.085938 C 78.300781 162.691406 78.496094 161.914062 78.496094 161.070312 C 78.496094 159.027344 77.441406 157.894531 75.726562 157.894531 C 72.984375 157.894531 70.960938 160.84375 69.6875 164.023438 L 69.632812 163.988281 C 70.488281 161.039062 70.878906 159.289062 71.042969 158.25 L 68.164062 158.25 C 68.023438 159.289062 67.136719 164.863281 66.972656 165.933594 L 65.585938 174.367188 L 68.496094 174.367188 L 69.132812 170.507812 C 69.851562 166.066406 72.648438 160.875 74.589844 160.875 C 75.613281 160.875 75.945312 161.847656 75.558594 164.152344 L 73.898438 174.367188 L 76.777344 174.367188 L 77.414062 170.507812 C 78.136719 166.03125 80.933594 160.875 82.871094 160.875 C 83.867188 160.875 84.230469 161.847656 83.839844 164.152344 L 82.179688 174.367188 L 85.089844 174.367188 L 86.886719 163.339844 "/>
<path style=" stroke:none;fill-rule:nonzero;fill:rgb(0%,0%,0%);fill-opacity:1;" d="M 98.285156 158.183594 C 97.59375 158.023438 96.847656 157.925781 95.933594 157.925781 C 92.191406 157.925781 90.28125 160.164062 90.28125 162.984375 C 90.28125 166.84375 94.160156 167.296875 94.160156 169.664062 C 94.160156 171.125 93.078125 171.871094 91.445312 171.871094 C 90.695312 171.871094 89.949219 171.707031 89.257812 171.449219 L 88.757812 174.429688 C 89.449219 174.59375 90.199219 174.691406 91.113281 174.691406 C 95.183594 174.691406 97.207031 172 97.207031 169.308594 C 97.207031 165.742188 93.300781 164.929688 93.300781 162.628906 C 93.300781 161.394531 94.132812 160.550781 95.765625 160.550781 C 96.429688 160.550781 97.125 160.648438 97.734375 160.910156 L 98.285156 158.183594 "/>
<path style=" stroke:none;fill-rule:nonzero;fill:rgb(0%,0%,0%);fill-opacity:1;" d="M 175.089844 152.582031 L 173.359375 160.503906 L 178.480469 160.503906 L 180.398438 152.582031 L 187.96875 152.582031 L 183.0625 174.535156 L 175.441406 174.535156 L 177.214844 166.09375 L 172.21875 166.09375 L 170.1875 174.535156 L 162.328125 174.519531 L 165.953125 158.277344 L 159.15625 158.277344 L 155.535156 174.535156 L 147.457031 174.535156 L 151.082031 158.277344 L 133.363281 158.277344 L 132.765625 160.890625 L 143.691406 160.890625 L 142.539062 166.070312 L 131.539062 166.070312 L 130.902344 168.824219 L 142.320312 168.824219 L 141.050781 174.535156 L 121.53125 174.535156 L 126.425781 152.582031 L 175.089844 152.582031 "/>
<path style=" stroke:none;fill-rule:nonzero;fill:rgb(0%,0%,0%);fill-opacity:1;" d="M 196.976562 165.566406 L 192.046875 171.867188 C 191.851562 172.113281 191.671875 172.347656 191.4375 172.59375 C 191.683594 172.566406 192.394531 172.566406 193.640625 172.566406 L 195.710938 172.566406 L 195.347656 174.429688 L 188.628906 174.429688 L 188.914062 172.878906 L 193.625 166.730469 C 193.898438 166.367188 194.167969 166.054688 194.480469 165.734375 C 194.117188 165.746094 193.664062 165.773438 192.65625 165.773438 L 190.414062 165.773438 L 190.738281 163.945312 L 197.277344 163.945312 L 196.976562 165.566406 "/>
<path style=" stroke:none;fill-rule:nonzero;fill:rgb(0%,0%,0%);fill-opacity:1;" d="M 204.175781 170.753906 L 204.148438 170.84375 L 204.136719 170.960938 L 204.109375 171.066406 L 204.097656 171.167969 L 204.046875 171.402344 L 204.007812 171.632812 L 203.953125 171.878906 L 203.914062 172.125 L 203.824219 172.632812 L 203.773438 172.890625 L 203.734375 173.136719 L 203.683594 173.382812 L 203.644531 173.613281 L 203.632812 173.71875 L 203.605469 173.835938 L 203.59375 173.9375 L 203.566406 174.042969 L 203.554688 174.144531 L 203.539062 174.25 L 203.515625 174.339844 L 203.5 174.429688 L 201.613281 174.429688 C 201.6875 173.964844 201.882812 173.253906 202.296875 172.035156 L 202.257812 172.023438 C 201.558594 173.40625 200.484375 174.597656 199.011719 174.597656 C 197.523438 174.597656 197.070312 173.550781 197.351562 172.035156 L 198.375 166.714844 L 200.316406 166.714844 L 199.386719 171.558594 C 199.21875 172.503906 199.359375 172.890625 199.851562 172.890625 C 200.898438 172.890625 202.296875 170.46875 202.632812 168.671875 L 203.007812 166.714844 L 204.953125 166.714844 L 204.175781 170.753906 "/>
<path style=" stroke:none;fill-rule:nonzero;fill:rgb(0%,0%,0%);fill-opacity:1;" d="M 200.394531 165.433594 L 200.292969 165.433594 L 200.226562 165.421875 L 200.175781 165.410156 L 200.125 165.410156 L 200.070312 165.382812 L 200.03125 165.371094 L 199.980469 165.355469 L 199.929688 165.332031 L 199.890625 165.304688 L 199.851562 165.28125 L 199.800781 165.253906 L 199.761719 165.226562 L 199.722656 165.1875 L 199.683594 165.164062 L 199.65625 165.125 L 199.617188 165.085938 L 199.59375 165.046875 L 199.554688 165.007812 L 199.5 164.929688 L 199.476562 164.890625 L 199.460938 164.839844 L 199.4375 164.800781 L 199.425781 164.75 L 199.398438 164.699219 L 199.386719 164.660156 L 199.386719 164.605469 L 199.371094 164.554688 L 199.359375 164.503906 L 199.359375 164.398438 C 199.359375 163.765625 199.878906 163.300781 200.460938 163.300781 C 201.070312 163.300781 201.507812 163.765625 201.507812 164.320312 C 201.507812 164.957031 200.992188 165.433594 200.394531 165.433594 "/>
<path style=" stroke:none;fill-rule:nonzero;fill:rgb(0%,0%,0%);fill-opacity:1;" d="M 203.539062 165.433594 L 203.421875 165.433594 L 203.320312 165.410156 L 203.269531 165.394531 L 203.21875 165.382812 L 203.179688 165.371094 L 203.125 165.355469 L 203.074219 165.332031 L 203.035156 165.304688 L 202.996094 165.28125 L 202.945312 165.253906 L 202.90625 165.226562 L 202.867188 165.1875 L 202.828125 165.164062 L 202.789062 165.125 L 202.765625 165.085938 L 202.726562 165.046875 L 202.671875 164.96875 L 202.648438 164.929688 L 202.621094 164.878906 L 202.59375 164.839844 L 202.570312 164.789062 L 202.554688 164.734375 L 202.542969 164.699219 L 202.53125 164.644531 L 202.515625 164.59375 L 202.503906 164.542969 L 202.503906 164.492188 L 202.492188 164.4375 L 202.492188 164.375 C 202.492188 163.765625 203.023438 163.300781 203.617188 163.300781 C 204.199219 163.300781 204.640625 163.765625 204.640625 164.320312 C 204.640625 164.957031 204.125 165.433594 203.539062 165.433594 "/>
<path style=" stroke:none;fill-rule:nonzero;fill:rgb(0%,0%,0%);fill-opacity:1;" d="M 210.839844 168.464844 L 210.722656 168.4375 L 210.621094 168.425781 L 210.515625 168.425781 L 210.398438 168.4375 L 210.296875 168.464844 L 210.179688 168.503906 L 210.078125 168.554688 L 209.960938 168.617188 L 209.855469 168.695312 L 209.742188 168.773438 L 209.636719 168.878906 L 209.519531 168.980469 L 209.417969 169.097656 L 209.3125 169.214844 L 209.210938 169.355469 L 209.105469 169.5 L 209 169.65625 L 208.898438 169.808594 L 208.808594 169.976562 L 208.71875 170.160156 L 208.625 170.339844 L 208.445312 170.730469 L 208.289062 171.144531 L 208.132812 171.582031 L 208.070312 171.804688 L 208.007812 172.035156 L 207.941406 172.269531 L 207.890625 172.515625 L 207.835938 172.746094 L 207.515625 174.429688 L 205.570312 174.429688 L 206.347656 170.390625 C 206.570312 169.304688 206.851562 167.710938 207.007812 166.714844 L 208.898438 166.714844 C 208.796875 167.300781 208.601562 167.984375 208.226562 169.046875 L 208.25 169.046875 C 209.078125 167.414062 209.921875 166.339844 211.253906 166.546875 L 210.839844 168.464844 "/>
<path style=" stroke:none;fill-rule:nonzero;fill:rgb(0%,0%,0%);fill-opacity:1;" d="M 212.960938 174.429688 L 211.023438 174.429688 L 212.496094 166.714844 L 214.4375 166.714844 L 212.960938 174.429688 "/>
<path style=" stroke:none;fill-rule:nonzero;fill:rgb(0%,0%,0%);fill-opacity:1;" d="M 213.804688 165.71875 L 213.675781 165.71875 L 213.625 165.707031 L 213.558594 165.695312 L 213.507812 165.679688 L 213.441406 165.667969 L 213.390625 165.640625 L 213.335938 165.628906 L 213.285156 165.601562 L 213.234375 165.578125 L 213.183594 165.550781 L 213.132812 165.511719 L 213.09375 165.488281 L 213.054688 165.449219 L 213 165.410156 L 212.921875 165.332031 L 212.898438 165.292969 L 212.859375 165.242188 L 212.832031 165.203125 L 212.808594 165.148438 L 212.78125 165.097656 L 212.757812 165.058594 L 212.730469 165.007812 L 212.71875 164.957031 L 212.691406 164.902344 L 212.679688 164.839844 L 212.679688 164.789062 L 212.664062 164.734375 L 212.652344 164.683594 L 212.652344 164.566406 C 212.679688 163.855469 213.285156 163.3125 213.972656 163.3125 C 214.632812 163.3125 215.136719 163.84375 215.125 164.425781 C 215.109375 165.175781 214.492188 165.71875 213.804688 165.71875 "/>
<path style=" stroke:none;fill-rule:nonzero;fill:rgb(0%,0%,0%);fill-opacity:1;" d="M 220.804688 168.464844 L 220.742188 168.4375 L 220.675781 168.414062 L 220.613281 168.386719 L 220.535156 168.359375 L 220.46875 168.347656 L 220.40625 168.320312 L 220.25 168.296875 L 220.183594 168.28125 L 220.109375 168.269531 L 220.03125 168.257812 L 219.953125 168.242188 L 219.859375 168.242188 L 219.785156 168.230469 L 219.617188 168.230469 C 218 168.230469 217.246094 170.03125 217.246094 171.480469 C 217.246094 172.21875 217.558594 172.839844 218.617188 172.839844 C 219.109375 172.839844 219.640625 172.734375 220.054688 172.554688 L 219.886719 174.273438 C 219.371094 174.457031 218.710938 174.585938 218.035156 174.585938 C 215.976562 174.585938 215.1875 173.539062 215.1875 171.917969 C 215.1875 168.957031 216.921875 166.546875 219.734375 166.546875 C 220.300781 166.546875 220.792969 166.640625 221.273438 166.753906 L 220.804688 168.464844 "/>
<g clip-path="url(#clip2)" clip-rule="nonzero">
<path style=" stroke:none;fill-rule:nonzero;fill:rgb(0%,0%,0%);fill-opacity:1;" d="M 227.953125 174.429688 L 225.996094 174.429688 L 226.929688 169.589844 C 227.121094 168.632812 226.953125 168.242188 226.460938 168.242188 C 225.425781 168.242188 224.015625 170.664062 223.679688 172.476562 L 223.304688 174.429688 L 221.363281 174.429688 L 223.523438 163.09375 L 225.464844 163.09375 L 224.859375 166.355469 C 224.714844 167.039062 224.484375 167.816406 224.015625 169.097656 L 224.054688 169.125 C 224.753906 167.738281 225.828125 166.535156 227.304688 166.535156 C 228.792969 166.535156 229.246094 167.597656 228.960938 169.097656 L 227.953125 174.429688 "/>
</g>
<path style=" stroke:none;fill-rule:nonzero;fill:rgb(0%,0%,0%);fill-opacity:1;" d="M 118.816406 164.664062 C 118.816406 160.886719 116.074219 157.710938 111.167969 157.710938 C 106.113281 157.710938 101.929688 161.535156 101.929688 166.949219 C 101.929688 171.566406 104.886719 174.742188 110.035156 174.742188 C 111.289062 174.742188 112.972656 174.523438 113.980469 174.164062 L 113.980469 172.214844 C 112.777344 172.625 111.550781 172.792969 110.347656 172.792969 C 106.261719 172.792969 104.167969 170.339844 104.167969 166.753906 C 104.167969 162.546875 107.222656 159.636719 111.046875 159.636719 C 114.992188 159.636719 116.601562 162.113281 116.601562 164.78125 C 116.601562 167.378906 115.6875 168.414062 114.269531 168.414062 C 113.308594 168.414062 112.921875 167.863281 113.210938 166.226562 L 113.957031 162.136719 C 113.234375 161.96875 112.25 161.800781 111.289062 161.800781 C 107.992188 161.800781 106.332031 164.300781 106.332031 167.355469 C 106.332031 169.234375 107.027344 170.242188 108.519531 170.242188 C 109.988281 170.242188 111.140625 169.136719 111.601562 168.101562 L 111.671875 168.101562 C 111.550781 169.207031 112.226562 170.242188 113.910156 170.242188 C 116.792969 170.242188 118.816406 168.4375 118.816406 164.664062 M 111.792969 163.507812 L 111.625 164.421875 C 111.140625 166.898438 110.15625 168.414062 109.097656 168.414062 C 108.546875 168.414062 108.328125 167.957031 108.328125 166.972656 C 108.328125 165.503906 109.074219 163.386719 110.734375 163.386719 C 111.140625 163.386719 111.503906 163.4375 111.792969 163.507812 "/>
</g>
</svg>
